<svg width="71" height="19" viewBox="0 0 71 19" fill="none" xmlns="http://www.w3.org/2000/svg">
<path d="M6.152 4.656C7.432 4.656 8.512 4.976 9.392 5.616C10.288 6.256 10.912 7.112 11.264 8.184V4.824H13.448V18H11.264V14.64C10.912 15.712 10.288 16.568 9.392 17.208C8.512 17.848 7.432 18.168 6.152 18.168C4.984 18.168 3.944 17.896 3.032 17.352C2.12 16.808 1.4 16.032 0.872 15.024C0.36 14 0.104 12.8 0.104 11.424C0.104 10.048 0.36 8.848 0.872 7.824C1.4 6.8 2.12 6.016 3.032 5.472C3.944 4.928 4.984 4.656 6.152 4.656ZM6.776 6.6C5.432 6.6 4.352 7.032 3.536 7.896C2.736 8.744 2.336 9.92 2.336 11.424C2.336 12.928 2.736 14.112 3.536 14.976C4.352 15.824 5.432 16.248 6.776 16.248C7.64 16.248 8.408 16.048 9.08 15.648C9.768 15.248 10.304 14.688 10.688 13.968C11.072 13.232 11.264 12.384 11.264 11.424C11.264 10.464 11.072 9.616 10.688 8.88C10.304 8.144 9.768 7.584 9.08 7.2C8.408 6.8 7.64 6.6 6.776 6.6ZM24.1959 4.656C25.3639 4.656 26.4039 4.928 27.3159 5.472C28.2279 6.016 28.9399 6.8 29.4519 7.824C29.9799 8.848 30.2439 10.048 30.2439 11.424C30.2439 12.8 29.9799 14 29.4519 15.024C28.9399 16.032 28.2279 16.808 27.3159 17.352C26.4039 17.896 25.3639 18.168 24.1959 18.168C22.9159 18.168 21.8279 17.848 20.9319 17.208C20.0519 16.552 19.4439 15.696 19.1079 14.64V18H16.9239V0.24H19.1079V8.184C19.4439 7.128 20.0519 6.28 20.9319 5.64C21.8279 4.984 22.9159 4.656 24.1959 4.656ZM23.5719 6.6C22.7239 6.6 21.9559 6.8 21.2679 7.2C20.5799 7.584 20.0439 8.144 19.6599 8.88C19.2759 9.616 19.0839 10.464 19.0839 11.424C19.0839 12.384 19.2759 13.232 19.6599 13.968C20.0439 14.688 20.5799 15.248 21.2679 15.648C21.9559 16.048 22.7239 16.248 23.5719 16.248C24.9319 16.248 26.0119 15.824 26.8119 14.976C27.6279 14.112 28.0359 12.928 28.0359 11.424C28.0359 9.92 27.6279 8.744 26.8119 7.896C26.0119 7.032 24.9319 6.6 23.5719 6.6ZM39.0718 4.656C40.3358 4.656 41.4638 4.928 42.4558 5.472C43.4638 6.016 44.2478 6.8 44.8078 7.824C45.3838 8.848 45.6718 10.048 45.6718 11.424C45.6718 12.8 45.3838 14 44.8078 15.024C44.2478 16.032 43.4638 16.808 42.4558 17.352C41.4638 17.896 40.3358 18.168 39.0718 18.168C37.8078 18.168 36.6718 17.896 35.6638 17.352C34.6718 16.808 33.8878 16.032 33.3118 15.024C32.7358 14 32.4478 12.8 32.4478 11.424C32.4478 10.048 32.7358 8.848 33.3118 7.824C33.8878 6.8 34.6718 6.016 35.6638 5.472C36.6718 4.928 37.8078 4.656 39.0718 4.656ZM39.0718 6.576C38.2878 6.576 37.5598 6.752 36.8878 7.104C36.2318 7.456 35.6958 8 35.2798 8.736C34.8798 9.456 34.6798 10.352 34.6798 11.424C34.6798 12.48 34.8798 13.376 35.2798 14.112C35.6958 14.832 36.2318 15.368 36.8878 15.72C37.5598 16.072 38.2878 16.248 39.0718 16.248C39.8558 16.248 40.5758 16.072 41.2318 15.72C41.9038 15.368 42.4398 14.832 42.8398 14.112C43.2558 13.376 43.4637 12.48 43.4637 11.424C43.4637 10.352 43.2558 9.456 42.8398 8.736C42.4398 8 41.9038 7.456 41.2318 7.104C40.5758 6.752 39.8558 6.576 39.0718 6.576ZM60.2296 4.824V18H58.0456V14.904C57.7096 15.976 57.1096 16.8 56.2456 17.376C55.3976 17.936 54.4056 18.216 53.2696 18.216C51.7496 18.216 50.5176 17.728 49.5736 16.752C48.6296 15.76 48.1576 14.344 48.1576 12.504V4.824H50.3416V12.288C50.3416 13.6 50.6776 14.616 51.3496 15.336C52.0216 16.04 52.9336 16.392 54.0856 16.392C55.2856 16.392 56.2456 16.008 56.9656 15.24C57.6856 14.456 58.0456 13.32 58.0456 11.832V4.824H60.2296ZM70.0166 16.08V18H68.3846C67.0406 18 66.0326 17.68 65.3606 17.04C64.7046 16.4 64.3766 15.328 64.3766 13.824V6.72H62.4086V4.824H64.3766V1.536H66.5846V4.824H69.9926V6.72H66.5846V13.872C66.5846 14.72 66.7366 15.304 67.0406 15.624C67.3606 15.928 67.9046 16.08 68.6726 16.08H70.0166Z" fill="#021718"/>
</svg>
