<svg width="1233" height="900" viewBox="0 0 1233 900" fill="none" xmlns="http://www.w3.org/2000/svg">
<path d="M623 339.5C793 218.7 874.167 56.5 893.5 -9.5L1081.5 -92.5C1196.17 -77.8333 1430.4 -40.7 1450 -9.5C1474.5 29.5 1416 119.5 1345 127C1274 134.5 1098.5 339.5 1040 403C981.5 466.5 974 781 823 825C672 869 493.5 805.5 457 710.5C420.5 615.5 410.5 490.5 623 339.5Z" fill="#FF7200" fill-opacity="0.27"/>
<path d="M483.15 356.797C754.042 184.882 883.379 -45.9519 914.186 -139.879L1213.76 -258C1396.48 -237.127 1769.72 -184.281 1800.96 -139.879C1840 -84.3767 1746.78 43.706 1633.64 54.3796C1520.5 65.0531 1240.85 356.797 1147.63 447.167C1054.41 537.536 1042.46 985.114 801.846 1047.73C561.231 1110.35 276.795 1019.98 218.633 884.783C160.471 749.584 144.536 571.692 483.15 356.797Z" fill="#FF7200" fill-opacity="0.27"/>
</svg>
