<svg width="51" height="25" viewBox="0 0 51 25" fill="none" xmlns="http://www.w3.org/2000/svg">
<path d="M8.024 4.656C9.192 4.656 10.232 4.928 11.144 5.472C12.056 6.016 12.768 6.8 13.28 7.824C13.808 8.848 14.072 10.048 14.072 11.424C14.072 12.8 13.808 14 13.28 15.024C12.768 16.032 12.056 16.808 11.144 17.352C10.232 17.896 9.192 18.168 8.024 18.168C6.744 18.168 5.656 17.848 4.76 17.208C3.88 16.552 3.272 15.696 2.936 14.64V18H0.752V0.24H2.936V8.184C3.272 7.128 3.88 6.28 4.76 5.64C5.656 4.984 6.744 4.656 8.024 4.656ZM7.4 6.6C6.552 6.6 5.784 6.8 5.096 7.2C4.408 7.584 3.872 8.144 3.488 8.88C3.104 9.616 2.912 10.464 2.912 11.424C2.912 12.384 3.104 13.232 3.488 13.968C3.872 14.688 4.408 15.248 5.096 15.648C5.784 16.048 6.552 16.248 7.4 16.248C8.76 16.248 9.84 15.824 10.64 14.976C11.456 14.112 11.864 12.928 11.864 11.424C11.864 9.92 11.456 8.744 10.64 7.896C9.84 7.032 8.76 6.6 7.4 6.6ZM19.1079 0.24V18H16.9239V0.24H19.1079ZM28.5952 4.656C29.8592 4.656 30.9872 4.928 31.9792 5.472C32.9872 6.016 33.7712 6.8 34.3312 7.824C34.9072 8.848 35.1952 10.048 35.1952 11.424C35.1952 12.8 34.9072 14 34.3312 15.024C33.7712 16.032 32.9872 16.808 31.9792 17.352C30.9872 17.896 29.8592 18.168 28.5952 18.168C27.3312 18.168 26.1952 17.896 25.1872 17.352C24.1952 16.808 23.4112 16.032 22.8352 15.024C22.2592 14 21.9712 12.8 21.9712 11.424C21.9712 10.048 22.2592 8.848 22.8352 7.824C23.4112 6.8 24.1952 6.016 25.1872 5.472C26.1952 4.928 27.3312 4.656 28.5952 4.656ZM28.5952 6.576C27.8112 6.576 27.0832 6.752 26.4112 7.104C25.7552 7.456 25.2192 8 24.8032 8.736C24.4032 9.456 24.2032 10.352 24.2032 11.424C24.2032 12.48 24.4032 13.376 24.8032 14.112C25.2192 14.832 25.7552 15.368 26.4112 15.72C27.0832 16.072 27.8112 16.248 28.5952 16.248C29.3792 16.248 30.0992 16.072 30.7552 15.72C31.4272 15.368 31.9632 14.832 32.3632 14.112C32.7792 13.376 32.9872 12.48 32.9872 11.424C32.9872 10.352 32.7792 9.456 32.3632 8.736C31.9632 8 31.4272 7.456 30.7552 7.104C30.0992 6.752 29.3792 6.576 28.5952 6.576ZM43.4411 4.656C44.7211 4.656 45.8011 4.976 46.6811 5.616C47.5771 6.256 48.2011 7.112 48.5531 8.184V4.824H50.7371V18.216C50.7371 19.432 50.4811 20.512 49.9691 21.456C49.4571 22.4 48.7371 23.136 47.8091 23.664C46.8811 24.192 45.8011 24.456 44.5691 24.456C42.7931 24.456 41.3451 24.024 40.2251 23.16C39.1051 22.312 38.3931 21.16 38.0891 19.704H40.2491C40.5051 20.584 40.9851 21.272 41.6891 21.768C42.4091 22.28 43.3291 22.536 44.4491 22.536C45.6331 22.536 46.6091 22.152 47.3771 21.384C48.1611 20.632 48.5531 19.576 48.5531 18.216V14.64C48.2011 15.712 47.5771 16.568 46.6811 17.208C45.8011 17.848 44.7211 18.168 43.4411 18.168C42.2731 18.168 41.2331 17.896 40.3211 17.352C39.4091 16.808 38.6891 16.032 38.1611 15.024C37.6491 14 37.3931 12.8 37.3931 11.424C37.3931 10.048 37.6491 8.848 38.1611 7.824C38.6891 6.8 39.4091 6.016 40.3211 5.472C41.2331 4.928 42.2731 4.656 43.4411 4.656ZM44.0651 6.6C42.7211 6.6 41.6411 7.032 40.8251 7.896C40.0251 8.744 39.6251 9.92 39.6251 11.424C39.6251 12.928 40.0251 14.112 40.8251 14.976C41.6411 15.824 42.7211 16.248 44.0651 16.248C44.9291 16.248 45.6971 16.048 46.3691 15.648C47.0571 15.248 47.5931 14.688 47.9771 13.968C48.3611 13.232 48.5531 12.384 48.5531 11.424C48.5531 10.464 48.3611 9.616 47.9771 8.88C47.5931 8.144 47.0571 7.584 46.3691 7.2C45.6971 6.8 44.9291 6.6 44.0651 6.6Z" fill="#021718"/>
</svg>
