<svg width="93" height="18" viewBox="0 0 93 18" fill="none" xmlns="http://www.w3.org/2000/svg">
<path d="M6.584 3.656C8.264 3.656 9.656 4.104 10.76 5C11.864 5.896 12.544 7.096 12.8 8.6H10.496C10.336 7.656 9.896 6.92 9.176 6.392C8.472 5.848 7.592 5.576 6.536 5.576C5.768 5.576 5.064 5.752 4.424 6.104C3.8 6.456 3.296 7 2.912 7.736C2.528 8.456 2.336 9.352 2.336 10.424C2.336 11.496 2.528 12.4 2.912 13.136C3.296 13.856 3.8 14.392 4.424 14.744C5.064 15.096 5.768 15.272 6.536 15.272C7.592 15.272 8.472 15 9.176 14.456C9.896 13.912 10.336 13.168 10.496 12.224H12.8C12.544 13.744 11.864 14.952 10.76 15.848C9.656 16.728 8.264 17.168 6.584 17.168C5.32 17.168 4.2 16.896 3.224 16.352C2.248 15.808 1.48 15.032 0.92 14.024C0.376 13 0.104 11.8 0.104 10.424C0.104 9.048 0.376 7.848 0.92 6.824C1.48 5.8 2.248 5.016 3.224 4.472C4.2 3.928 5.32 3.656 6.584 3.656ZM21.6343 3.656C22.8983 3.656 24.0263 3.928 25.0183 4.472C26.0263 5.016 26.8103 5.8 27.3703 6.824C27.9463 7.848 28.2343 9.048 28.2343 10.424C28.2343 11.8 27.9463 13 27.3703 14.024C26.8103 15.032 26.0263 15.808 25.0183 16.352C24.0263 16.896 22.8983 17.168 21.6343 17.168C20.3703 17.168 19.2343 16.896 18.2263 16.352C17.2343 15.808 16.4503 15.032 15.8743 14.024C15.2983 13 15.0103 11.8 15.0103 10.424C15.0103 9.048 15.2983 7.848 15.8743 6.824C16.4503 5.8 17.2343 5.016 18.2263 4.472C19.2343 3.928 20.3703 3.656 21.6343 3.656ZM21.6343 5.576C20.8503 5.576 20.1223 5.752 19.4503 6.104C18.7943 6.456 18.2583 7 17.8423 7.736C17.4423 8.456 17.2423 9.352 17.2423 10.424C17.2423 11.48 17.4423 12.376 17.8423 13.112C18.2583 13.832 18.7943 14.368 19.4503 14.72C20.1223 15.072 20.8503 15.248 21.6343 15.248C22.4183 15.248 23.1383 15.072 23.7943 14.72C24.4663 14.368 25.0023 13.832 25.4023 13.112C25.8183 12.376 26.0262 11.48 26.0262 10.424C26.0262 9.352 25.8183 8.456 25.4023 7.736C25.0023 7 24.4663 6.456 23.7943 6.104C23.1383 5.752 22.4183 5.576 21.6343 5.576ZM38.0161 3.608C39.5521 3.608 40.7921 4.104 41.7361 5.096C42.6801 6.072 43.1521 7.488 43.1521 9.344V17H40.9681V9.536C40.9681 8.224 40.6321 7.216 39.9601 6.512C39.2881 5.808 38.3761 5.456 37.2241 5.456C36.0241 5.456 35.0641 5.848 34.3441 6.632C33.6241 7.4 33.2641 8.528 33.2641 10.016V17H31.0801V3.824H33.2641V6.944C33.6001 5.872 34.1921 5.048 35.0401 4.472C35.9041 3.896 36.8961 3.608 38.0161 3.608ZM52.79 15.08V17H51.158C49.814 17 48.806 16.68 48.134 16.04C47.478 15.4 47.15 14.328 47.15 12.824V5.72H45.182V3.824H47.15V0.535999H49.358V3.824H52.766V5.72H49.358V12.872C49.358 13.72 49.51 14.304 49.814 14.624C50.134 14.928 50.678 15.08 51.446 15.08H52.79ZM60.8551 3.656C62.1351 3.656 63.2151 3.976 64.0951 4.616C64.9911 5.256 65.6151 6.112 65.9671 7.184V3.824H68.1511V17H65.9671V13.64C65.6151 14.712 64.9911 15.568 64.0951 16.208C63.2151 16.848 62.1351 17.168 60.8551 17.168C59.6871 17.168 58.6471 16.896 57.7351 16.352C56.8231 15.808 56.1031 15.032 55.5751 14.024C55.0631 13 54.8071 11.8 54.8071 10.424C54.8071 9.048 55.0631 7.848 55.5751 6.824C56.1031 5.8 56.8231 5.016 57.7351 4.472C58.6471 3.928 59.6871 3.656 60.8551 3.656ZM61.4791 5.6C60.1351 5.6 59.0551 6.032 58.2391 6.896C57.4391 7.744 57.0391 8.92 57.0391 10.424C57.0391 11.928 57.4391 13.112 58.2391 13.976C59.0551 14.824 60.1351 15.248 61.4791 15.248C62.3431 15.248 63.1111 15.048 63.7831 14.648C64.4711 14.248 65.0071 13.688 65.3911 12.968C65.7751 12.232 65.9671 11.384 65.9671 10.424C65.9671 9.464 65.7751 8.616 65.3911 7.88C65.0071 7.144 64.4711 6.584 63.7831 6.2C63.1111 5.8 62.3431 5.6 61.4791 5.6ZM77.459 3.656C79.139 3.656 80.531 4.104 81.635 5C82.739 5.896 83.419 7.096 83.675 8.6H81.371C81.211 7.656 80.771 6.92 80.051 6.392C79.347 5.848 78.467 5.576 77.411 5.576C76.643 5.576 75.939 5.752 75.299 6.104C74.675 6.456 74.171 7 73.787 7.736C73.403 8.456 73.211 9.352 73.211 10.424C73.211 11.496 73.403 12.4 73.787 13.136C74.171 13.856 74.675 14.392 75.299 14.744C75.939 15.096 76.643 15.272 77.411 15.272C78.467 15.272 79.347 15 80.051 14.456C80.771 13.912 81.211 13.168 81.371 12.224H83.675C83.419 13.744 82.739 14.952 81.635 15.848C80.531 16.728 79.139 17.168 77.459 17.168C76.195 17.168 75.075 16.896 74.099 16.352C73.123 15.808 72.355 15.032 71.795 14.024C71.251 13 70.979 11.8 70.979 10.424C70.979 9.048 71.251 7.848 71.795 6.824C72.355 5.8 73.123 5.016 74.099 4.472C75.075 3.928 76.195 3.656 77.459 3.656ZM92.8213 15.08V17H91.1893C89.8453 17 88.8373 16.68 88.1653 16.04C87.5093 15.4 87.1813 14.328 87.1813 12.824V5.72H85.2133V3.824H87.1813V0.535999H89.3893V3.824H92.7973V5.72H89.3893V12.872C89.3893 13.72 89.5413 14.304 89.8453 14.624C90.1653 14.928 90.7093 15.08 91.4773 15.08H92.8213Z" fill="#021718"/>
</svg>
