<svg width="196" height="61" viewBox="0 0 196 61" fill="none" xmlns="http://www.w3.org/2000/svg">
<rect y="0.673401" width="196" height="60" rx="8" fill="#01847F"/>
<path d="M50.5312 33.2593C50.3203 35.064 49.6523 36.4586 48.5273 37.4429C47.4102 38.4195 45.9219 38.9078 44.0625 38.9078C42.0469 38.9078 40.4297 38.1851 39.2109 36.7398C38 35.2945 37.3945 33.3609 37.3945 30.939V29.2984C37.3945 27.7125 37.6758 26.3179 38.2383 25.1148C38.8086 23.9117 39.6133 22.9898 40.6523 22.3492C41.6914 21.7007 42.8945 21.3765 44.2617 21.3765C46.0742 21.3765 47.5273 21.8843 48.6211 22.9C49.7148 23.9078 50.3516 25.3062 50.5312 27.0953H48.2695C48.0742 25.7359 47.6484 24.7515 46.9922 24.1422C46.3438 23.5328 45.4336 23.2281 44.2617 23.2281C42.8242 23.2281 41.6953 23.7593 40.875 24.8218C40.0625 25.8843 39.6562 27.3961 39.6562 29.357V31.0093C39.6562 32.8609 40.043 34.3336 40.8164 35.4273C41.5898 36.5211 42.6719 37.0679 44.0625 37.0679C45.3125 37.0679 46.2695 36.7867 46.9336 36.2242C47.6055 35.6539 48.0508 34.6656 48.2695 33.2593H50.5312ZM52.6992 32.2164C52.6992 30.9742 52.9414 29.857 53.4258 28.8648C53.918 27.8726 54.5977 27.107 55.4648 26.5679C56.3398 26.0289 57.3359 25.7593 58.4531 25.7593C60.1797 25.7593 61.5742 26.357 62.6367 27.5523C63.707 28.7476 64.2422 30.3375 64.2422 32.3218V32.4742C64.2422 33.7086 64.0039 34.8179 63.5273 35.8023C63.0586 36.7789 62.3828 37.5406 61.5 38.0875C60.625 38.6343 59.6172 38.9078 58.4766 38.9078C56.7578 38.9078 55.3633 38.3101 54.293 37.1148C53.2305 35.9195 52.6992 34.3375 52.6992 32.3687V32.2164ZM54.8789 32.4742C54.8789 33.8804 55.2031 35.0093 55.8516 35.8609C56.5078 36.7125 57.3828 37.1382 58.4766 37.1382C59.5781 37.1382 60.4531 36.7086 61.1016 35.8492C61.75 34.982 62.0742 33.7711 62.0742 32.2164C62.0742 30.8257 61.7422 29.7007 61.0781 28.8414C60.4219 27.9742 59.5469 27.5406 58.4531 27.5406C57.3828 27.5406 56.5195 27.9664 55.8633 28.8179C55.207 29.6695 54.8789 30.8882 54.8789 32.4742ZM69.0117 25.9937L69.082 27.5875C70.0508 26.3687 71.3164 25.7593 72.8789 25.7593C75.5586 25.7593 76.9102 27.2711 76.9336 30.2945V38.6734H74.7656V30.2828C74.7578 29.3687 74.5469 28.6929 74.1328 28.2554C73.7266 27.8179 73.0898 27.5992 72.2227 27.5992C71.5195 27.5992 70.9023 27.7867 70.3711 28.1617C69.8398 28.5367 69.4258 29.0289 69.1289 29.6382V38.6734H66.9609V25.9937H69.0117ZM83.1445 22.9234V25.9937H85.5117V27.6695H83.1445V35.5328C83.1445 36.0406 83.25 36.4234 83.4609 36.6812C83.6719 36.9312 84.0312 37.0562 84.5391 37.0562C84.7891 37.0562 85.1328 37.0093 85.5703 36.9156V38.6734C85 38.8297 84.4453 38.9078 83.9062 38.9078C82.9375 38.9078 82.207 38.6148 81.7148 38.0289C81.2227 37.4429 80.9766 36.6109 80.9766 35.5328V27.6695H78.668V25.9937H80.9766V22.9234H83.1445ZM95.8828 38.6734C95.7578 38.4234 95.6562 37.9781 95.5781 37.3375C94.5703 38.3843 93.3672 38.9078 91.9688 38.9078C90.7188 38.9078 89.6914 38.5562 88.8867 37.8531C88.0898 37.1422 87.6914 36.2437 87.6914 35.1578C87.6914 33.8375 88.1914 32.814 89.1914 32.0875C90.1992 31.3531 91.6133 30.9859 93.4336 30.9859H95.543V29.9898C95.543 29.232 95.3164 28.6304 94.8633 28.1851C94.4102 27.732 93.7422 27.5054 92.8594 27.5054C92.0859 27.5054 91.4375 27.7007 90.9141 28.0914C90.3906 28.482 90.1289 28.9547 90.1289 29.5093H87.9492C87.9492 28.8765 88.1719 28.2672 88.6172 27.6812C89.0703 27.0875 89.6797 26.6187 90.4453 26.275C91.2188 25.9312 92.0664 25.7593 92.9883 25.7593C94.4492 25.7593 95.5938 26.1265 96.4219 26.8609C97.25 27.5875 97.6797 28.5914 97.7109 29.8726V35.7086C97.7109 36.8726 97.8594 37.7984 98.1562 38.4859V38.6734H95.8828ZM92.2852 37.0211C92.9648 37.0211 93.6094 36.8453 94.2188 36.4937C94.8281 36.1422 95.2695 35.6851 95.543 35.1226V32.5211H93.8438C91.1875 32.5211 89.8594 33.2984 89.8594 34.8531C89.8594 35.5328 90.0859 36.064 90.5391 36.4468C90.9922 36.8297 91.5742 37.0211 92.2852 37.0211ZM106.195 37.1382C106.969 37.1382 107.645 36.9039 108.223 36.4351C108.801 35.9664 109.121 35.3804 109.184 34.6773H111.234C111.195 35.4039 110.945 36.0953 110.484 36.7515C110.023 37.4078 109.406 37.9312 108.633 38.3218C107.867 38.7125 107.055 38.9078 106.195 38.9078C104.469 38.9078 103.094 38.3336 102.07 37.1851C101.055 36.0289 100.547 34.4507 100.547 32.4507V32.0875C100.547 30.8531 100.773 29.7554 101.227 28.7945C101.68 27.8336 102.328 27.0875 103.172 26.5562C104.023 26.025 105.027 25.7593 106.184 25.7593C107.605 25.7593 108.785 26.1851 109.723 27.0367C110.668 27.8882 111.172 28.9937 111.234 30.3531H109.184C109.121 29.5328 108.809 28.8609 108.246 28.3375C107.691 27.8062 107.004 27.5406 106.184 27.5406C105.082 27.5406 104.227 27.939 103.617 28.7359C103.016 29.525 102.715 30.6695 102.715 32.1695V32.5797C102.715 34.0406 103.016 35.1656 103.617 35.9547C104.219 36.7437 105.078 37.1382 106.195 37.1382ZM116.613 22.9234V25.9937H118.98V27.6695H116.613V35.5328C116.613 36.0406 116.719 36.4234 116.93 36.6812C117.141 36.9312 117.5 37.0562 118.008 37.0562C118.258 37.0562 118.602 37.0093 119.039 36.9156V38.6734C118.469 38.8297 117.914 38.9078 117.375 38.9078C116.406 38.9078 115.676 38.6148 115.184 38.0289C114.691 37.4429 114.445 36.6109 114.445 35.5328V27.6695H112.137V25.9937H114.445V22.9234H116.613ZM130.723 21.6109L136.301 35.5328L141.879 21.6109H144.797V38.6734H142.547V32.0289L142.758 24.857L137.156 38.6734H135.434L129.844 24.8922L130.066 32.0289V38.6734H127.816V21.6109H130.723ZM153.691 38.9078C151.973 38.9078 150.574 38.3453 149.496 37.2203C148.418 36.0875 147.879 34.5757 147.879 32.6851V32.2867C147.879 31.0289 148.117 29.9078 148.594 28.9234C149.078 27.9312 149.75 27.1578 150.609 26.6031C151.477 26.0406 152.414 25.7593 153.422 25.7593C155.07 25.7593 156.352 26.3023 157.266 27.3882C158.18 28.4742 158.637 30.0289 158.637 32.0523V32.9547H150.047C150.078 34.2047 150.441 35.2164 151.137 35.9898C151.84 36.7554 152.73 37.1382 153.809 37.1382C154.574 37.1382 155.223 36.982 155.754 36.6695C156.285 36.357 156.75 35.9429 157.148 35.4273L158.473 36.4586C157.41 38.0914 155.816 38.9078 153.691 38.9078ZM153.422 27.5406C152.547 27.5406 151.812 27.8609 151.219 28.5015C150.625 29.1343 150.258 30.025 150.117 31.1734H156.469V31.0093C156.406 29.9078 156.109 29.0562 155.578 28.4547C155.047 27.8453 154.328 27.5406 153.422 27.5406Z" fill="#FFFFFA"/>
</svg>
