<svg width="344" height="62" viewBox="0 0 344 62" fill="none" xmlns="http://www.w3.org/2000/svg">
<path d="M31.125 21.2359V29.6734H7.78125V21.2359H31.125ZM11.4375 3.1734V48.6734H0.46875V3.1734H11.4375ZM38.5 3.1734V48.6734H27.5625V3.1734H38.5ZM56.0938 14.8609V48.6734H45.5312V14.8609H56.0938ZM44.9062 6.14215C44.9062 4.64215 45.4479 3.41298 46.5312 2.45465C47.6146 1.49632 49.0208 1.01715 50.75 1.01715C52.4792 1.01715 53.8854 1.49632 54.9688 2.45465C56.0521 3.41298 56.5938 4.64215 56.5938 6.14215C56.5938 7.64215 56.0521 8.87132 54.9688 9.82965C53.8854 10.788 52.4792 11.2672 50.75 11.2672C49.0208 11.2672 47.6146 10.788 46.5312 9.82965C45.4479 8.87132 44.9062 7.64215 44.9062 6.14215ZM72.7812 40.7359L72.7188 47.4234C72.7188 49.9442 72.0938 52.4338 70.8438 54.8922C69.6146 57.3505 68.1042 59.3609 66.3125 60.9234L60.9688 58.4234C61.4062 57.4651 61.8854 56.4963 62.4062 55.5172C62.9271 54.5588 63.375 53.4755 63.75 52.2672C64.125 51.0588 64.3125 49.6422 64.3125 48.0172V40.7359H72.7812ZM107.938 3.1734V48.6734H97V3.1734H107.938ZM124.594 0.673401V5.7984C124.594 7.19423 124.312 8.62132 123.75 10.0797C123.208 11.538 122.5 12.913 121.625 14.2047C120.771 15.4755 119.854 16.5484 118.875 17.4234L114.25 14.9234C114.917 13.7359 115.521 12.4234 116.062 10.9859C116.625 9.52757 116.906 7.78798 116.906 5.76715V0.673401H124.594ZM140.719 22.0172V48.6734H130.188V14.8609H140.062L140.719 22.0172ZM139.438 30.6109L137.031 30.6734C137.031 28.2984 137.312 26.1109 137.875 24.1109C138.438 22.1109 139.271 20.3713 140.375 18.8922C141.479 17.413 142.833 16.2672 144.438 15.4547C146.062 14.6422 147.938 14.2359 150.062 14.2359C151.542 14.2359 152.885 14.4651 154.094 14.9234C155.302 15.3609 156.344 16.0588 157.219 17.0172C158.094 17.9547 158.76 19.1838 159.219 20.7047C159.698 22.2047 159.938 24.0067 159.938 26.1109V48.6734H149.406V27.4547C149.406 26.0172 149.24 24.9338 148.906 24.2047C148.594 23.4755 148.135 22.9859 147.531 22.7359C146.927 22.4859 146.188 22.3609 145.312 22.3609C144.396 22.3609 143.573 22.5692 142.844 22.9859C142.115 23.4026 141.49 23.9859 140.969 24.7359C140.469 25.4651 140.083 26.3297 139.812 27.3297C139.562 28.3297 139.438 29.4234 139.438 30.6109ZM158.75 30.6109L155.812 30.6734C155.812 28.2984 156.073 26.1109 156.594 24.1109C157.135 22.1109 157.938 20.3713 159 18.8922C160.083 17.413 161.427 16.2672 163.031 15.4547C164.635 14.6422 166.5 14.2359 168.625 14.2359C170.167 14.2359 171.583 14.4651 172.875 14.9234C174.167 15.3817 175.281 16.1213 176.219 17.1422C177.156 18.163 177.885 19.5172 178.406 21.2047C178.927 22.8713 179.188 24.9338 179.188 27.3922V48.6734H168.625V27.3922C168.625 25.9963 168.458 24.9442 168.125 24.2359C167.812 23.5067 167.354 23.0172 166.75 22.7672C166.146 22.4963 165.427 22.3609 164.594 22.3609C163.594 22.3609 162.729 22.5692 162 22.9859C161.271 23.4026 160.656 23.9859 160.156 24.7359C159.677 25.4651 159.323 26.3297 159.094 27.3297C158.865 28.3297 158.75 29.4234 158.75 30.6109ZM216.438 48.6734H206.344L206.406 40.2359H216.438C218.521 40.2359 220.281 39.7359 221.719 38.7359C223.177 37.7359 224.281 36.2463 225.031 34.2672C225.802 32.2672 226.188 29.8088 226.188 26.8922V24.9234C226.188 22.7359 225.969 20.8192 225.531 19.1734C225.115 17.5067 224.49 16.1213 223.656 15.0172C222.823 13.8922 221.781 13.0484 220.531 12.4859C219.302 11.9234 217.885 11.6422 216.281 11.6422H206.156V3.1734H216.281C219.365 3.1734 222.188 3.70465 224.75 4.76715C227.333 5.80882 229.562 7.30882 231.438 9.26715C233.333 11.2047 234.792 13.5067 235.812 16.1734C236.854 18.8192 237.375 21.7567 237.375 24.9859V26.8922C237.375 30.1005 236.854 33.038 235.812 35.7047C234.792 38.3713 233.344 40.6734 231.469 42.6109C229.594 44.5484 227.375 46.0484 224.812 47.1109C222.271 48.1526 219.479 48.6734 216.438 48.6734ZM212.625 3.1734V48.6734H201.656V3.1734H212.625ZM258.969 49.2984C256.219 49.2984 253.76 48.8713 251.594 48.0172C249.427 47.1422 247.594 45.9442 246.094 44.4234C244.615 42.9026 243.479 41.1526 242.688 39.1734C241.917 37.1942 241.531 35.1005 241.531 32.8922V31.7047C241.531 29.2255 241.875 26.9338 242.562 24.8297C243.25 22.7047 244.271 20.8505 245.625 19.2672C246.979 17.6838 248.677 16.4547 250.719 15.5797C252.76 14.6838 255.135 14.2359 257.844 14.2359C260.24 14.2359 262.385 14.6213 264.281 15.3922C266.177 16.163 267.781 17.2672 269.094 18.7047C270.427 20.1422 271.438 21.8817 272.125 23.9234C272.833 25.9651 273.188 28.2567 273.188 30.7984V35.0797H245.562V28.4859H262.906V27.6734C262.927 26.5484 262.729 25.5901 262.312 24.7984C261.917 24.0067 261.333 23.4026 260.562 22.9859C259.792 22.5692 258.854 22.3609 257.75 22.3609C256.604 22.3609 255.656 22.6109 254.906 23.1109C254.177 23.6109 253.604 24.2984 253.188 25.1734C252.792 26.0276 252.51 27.0172 252.344 28.1422C252.177 29.2672 252.094 30.4547 252.094 31.7047V32.8922C252.094 34.1422 252.26 35.2776 252.594 36.2984C252.948 37.3192 253.448 38.1942 254.094 38.9234C254.76 39.6317 255.552 40.1838 256.469 40.5797C257.406 40.9755 258.469 41.1734 259.656 41.1734C261.094 41.1734 262.51 40.9026 263.906 40.3609C265.302 39.8192 266.5 38.9234 267.5 37.6734L272.281 43.3609C271.594 44.3401 270.615 45.288 269.344 46.2047C268.094 47.1213 266.594 47.8713 264.844 48.4547C263.094 49.0172 261.135 49.2984 258.969 49.2984ZM293.844 49.2984C291.094 49.2984 288.635 48.8713 286.469 48.0172C284.302 47.1422 282.469 45.9442 280.969 44.4234C279.49 42.9026 278.354 41.1526 277.562 39.1734C276.792 37.1942 276.406 35.1005 276.406 32.8922V31.7047C276.406 29.2255 276.75 26.9338 277.438 24.8297C278.125 22.7047 279.146 20.8505 280.5 19.2672C281.854 17.6838 283.552 16.4547 285.594 15.5797C287.635 14.6838 290.01 14.2359 292.719 14.2359C295.115 14.2359 297.26 14.6213 299.156 15.3922C301.052 16.163 302.656 17.2672 303.969 18.7047C305.302 20.1422 306.312 21.8817 307 23.9234C307.708 25.9651 308.062 28.2567 308.062 30.7984V35.0797H280.438V28.4859H297.781V27.6734C297.802 26.5484 297.604 25.5901 297.188 24.7984C296.792 24.0067 296.208 23.4026 295.438 22.9859C294.667 22.5692 293.729 22.3609 292.625 22.3609C291.479 22.3609 290.531 22.6109 289.781 23.1109C289.052 23.6109 288.479 24.2984 288.062 25.1734C287.667 26.0276 287.385 27.0172 287.219 28.1422C287.052 29.2672 286.969 30.4547 286.969 31.7047V32.8922C286.969 34.1422 287.135 35.2776 287.469 36.2984C287.823 37.3192 288.323 38.1942 288.969 38.9234C289.635 39.6317 290.427 40.1838 291.344 40.5797C292.281 40.9755 293.344 41.1734 294.531 41.1734C295.969 41.1734 297.385 40.9026 298.781 40.3609C300.177 39.8192 301.375 38.9234 302.375 37.6734L307.156 43.3609C306.469 44.3401 305.49 45.288 304.219 46.2047C302.969 47.1213 301.469 47.8713 299.719 48.4547C297.969 49.0172 296.01 49.2984 293.844 49.2984ZM322.969 21.3609V61.6734H312.438V14.8609H322.25L322.969 21.3609ZM343.719 31.3609V32.0172C343.719 34.4755 343.438 36.7567 342.875 38.8609C342.312 40.9651 341.479 42.7984 340.375 44.3609C339.271 45.9234 337.896 47.1422 336.25 48.0172C334.625 48.8713 332.74 49.2984 330.594 49.2984C328.573 49.2984 326.833 48.8505 325.375 47.9547C323.917 47.0588 322.698 45.8192 321.719 44.2359C320.74 42.6526 319.948 40.8401 319.344 38.7984C318.74 36.7567 318.26 34.6005 317.906 32.3297V31.4859C318.26 29.0484 318.74 26.788 319.344 24.7047C319.948 22.6005 320.74 20.7672 321.719 19.2047C322.698 17.6422 323.906 16.4234 325.344 15.5484C326.802 14.6734 328.542 14.2359 330.562 14.2359C332.708 14.2359 334.594 14.6422 336.219 15.4547C337.865 16.2672 339.24 17.4338 340.344 18.9547C341.469 20.4547 342.312 22.2567 342.875 24.3609C343.438 26.4651 343.719 28.7984 343.719 31.3609ZM333.188 32.0172V31.3609C333.188 30.0484 333.094 28.8505 332.906 27.7672C332.719 26.663 332.417 25.7047 332 24.8922C331.604 24.0797 331.073 23.4547 330.406 23.0172C329.74 22.5797 328.917 22.3609 327.938 22.3609C326.812 22.3609 325.865 22.538 325.094 22.8922C324.344 23.2255 323.74 23.7463 323.281 24.4547C322.844 25.1422 322.531 26.0067 322.344 27.0484C322.177 28.0692 322.104 29.2672 322.125 30.6422V33.2047C322.083 34.788 322.24 36.1838 322.594 37.3922C322.948 38.5797 323.562 39.5067 324.438 40.1734C325.312 40.8401 326.5 41.1734 328 41.1734C329 41.1734 329.833 40.9442 330.5 40.4859C331.167 40.0067 331.698 39.3505 332.094 38.5172C332.49 37.663 332.771 36.6838 332.938 35.5797C333.104 34.4755 333.188 33.288 333.188 32.0172Z" fill="#021718"/>
</svg>
