<svg width="208" height="60" viewBox="0 0 208 60" fill="none" xmlns="http://www.w3.org/2000/svg">
<path d="M12.1562 25.6875C9.36458 24.6875 7.95833 23.4271 7.9375 21.9062C7.9375 20.3854 8.71875 18.8125 10.2812 17.1875C11.8438 15.5417 13.6146 14.0625 15.5938 12.75C17.5938 11.4375 19.2188 10.4896 20.4688 9.90625C25.2396 7.67708 30.2708 6.01042 35.5625 4.90625C40.875 3.80208 45.8229 3.38542 50.4062 3.65625C55.0104 3.92708 58.6354 5.02083 61.2812 6.9375C63.9271 8.83333 64.9792 11.6667 64.4375 15.4375C63.9167 19.2083 61.1771 24.0312 56.2188 29.9062C50.3438 36.6562 43.125 42.4271 34.5625 47.2188C26.0208 52.0312 17.3333 55.1979 8.5 56.7188C7.9375 56.8229 7.07292 56.9479 5.90625 57.0938C4.76042 57.2396 3.63542 57.2812 2.53125 57.2188C1.44792 57.1771 0.729167 56.9167 0.375 56.4375C0.125 55.9375 0.145833 55.5729 0.4375 55.3438C0.75 55.1354 1.14583 55.1875 1.625 55.5C2.52083 55.7917 3.84375 55.8021 5.59375 55.5312C7.36458 55.2604 8.89583 54.9792 10.1875 54.6875C10.3542 54.6458 10.5104 54.6146 10.6562 54.5938C18.9479 52.8229 27.0312 49.6354 34.9062 45.0312C42.8021 40.4479 49.4792 35.0312 54.9375 28.7812C59.6875 23.1354 62.2812 18.5938 62.7188 15.1562C63.1771 11.7188 62.0938 9.21875 59.4688 7.65625C56.8438 6.07292 53.3229 5.26042 48.9062 5.21875C44.5104 5.15625 39.8333 5.6875 34.875 6.8125C29.9375 7.9375 25.3646 9.48958 21.1562 11.4688C20.3021 11.8646 19.0104 12.6042 17.2812 13.6875C15.5729 14.75 13.9583 15.9688 12.4375 17.3438C10.9375 18.7188 10.0625 20.0625 9.8125 21.375C9.5625 22.6875 10.4792 23.7812 12.5625 24.6562C12.8125 24.7812 12.9583 24.9479 13 25.1562C13.0625 25.3438 13.0208 25.5104 12.875 25.6562C12.7292 25.7812 12.4896 25.7917 12.1562 25.6875ZM15.9062 42.25C16.9896 39.3125 19 35.5208 21.9375 30.875C24.8958 26.2083 27.5312 22.1875 29.8438 18.8125C30.3021 18.1667 30.6979 17.5833 31.0312 17.0625C31.3438 16.6042 31.5104 16.2604 31.5312 16.0312C31.5729 15.8021 31.5417 15.6458 31.4375 15.5625C31.3333 15.4583 31.2083 15.375 31.0625 15.3125C30.9375 15.2917 30.8333 15.25 30.75 15.1875C30.6875 15.125 30.6771 15.0417 30.7188 14.9375C30.7604 14.8125 30.875 14.6354 31.0625 14.4062C31.3542 14.0729 31.8646 13.5521 32.5938 12.8438C33.3229 12.1354 34.0625 11.5104 34.8125 10.9688C35.5625 10.4271 36.1146 10.25 36.4688 10.4375C36.6979 10.6042 36.7604 10.8646 36.6562 11.2188C36.5729 11.5729 36.4062 11.9479 36.1562 12.3438C35.9062 12.7396 35.6771 13.0938 35.4688 13.4062C35.3438 13.5938 35.2396 13.7396 35.1562 13.8438C33.9688 15.6979 32.3438 18.1146 30.2812 21.0938C27.5729 24.9688 24.8958 28.9375 22.25 33C19.625 37.0625 17.8854 40.2812 17.0312 42.6562C16.9271 43.0521 16.7604 43.2708 16.5312 43.3125C16.3021 43.375 16.1146 43.3021 15.9688 43.0938C15.8229 42.8854 15.8021 42.6042 15.9062 42.25ZM62.6875 35.0938C61.5 34.4896 60.6562 33.5729 60.1562 32.3438C59.5104 30.4062 59.8958 28.1458 61.3125 25.5625C62.75 22.9792 64.7812 20.3542 67.4062 17.6875C70.0312 15.0208 72.8333 12.6146 75.8125 10.4688C78.8125 8.30208 81.5625 6.69792 84.0625 5.65625C86.5625 4.59375 88.4062 4.375 89.5938 5C90.5104 5.64583 90.8542 6.625 90.625 7.9375C90.4167 9.25 89.9688 10.5625 89.2812 11.875C88.6146 13.1875 88.0729 14.1771 87.6562 14.8438L76.2188 33.4688C75.7604 34.2396 75.3542 34.9167 75 35.5C72.9167 38.7917 73.3125 38.5417 76.1875 34.75C76.3542 34.5417 76.5208 34.3333 76.6875 34.125C77.6875 32.8125 79.3229 30.75 81.5938 27.9375C83.8854 25.125 86.3958 22.1979 89.125 19.1562C91.875 16.0938 94.4271 13.5625 96.7812 11.5625C99.1562 9.54167 100.917 8.6875 102.062 9C103.021 9.4375 103.458 10.4375 103.375 12C103.312 13.5417 102.958 15.3542 102.312 17.4375C101.688 19.5208 101.01 21.5625 100.281 23.5625C99.6146 25.4375 99.0938 27.0208 98.7188 28.3125C98.3646 29.5833 98.3438 30.3125 98.6562 30.5C99.4688 30.6667 101.177 29.8125 103.781 27.9375C106.385 26.0417 109.271 23.7604 112.438 21.0938C115.625 18.4271 118.49 15.9896 121.031 13.7812C123.323 11.8021 124.875 10.4896 125.688 9.84375C125.75 9.78125 125.833 9.71875 125.938 9.65625C126.396 9.28125 127.021 8.82292 127.812 8.28125C128.625 7.71875 129.427 7.26042 130.219 6.90625C131.031 6.53125 131.656 6.4375 132.094 6.625C132.74 6.97917 132.927 7.69792 132.656 8.78125C132.406 9.86458 131.979 11 131.375 12.1875C130.771 13.375 130.292 14.2604 129.938 14.8438C129.875 14.9271 129.833 15 129.812 15.0625C128.104 17.9375 125.427 22.0625 121.781 27.4375C119.427 30.9167 117.083 34.4479 114.75 38.0312C112.438 41.5938 110.479 44.7812 108.875 47.5938C107.271 50.4062 106.385 52.4375 106.219 53.6875C106.177 54.2083 106.281 54.4792 106.531 54.5C106.781 54.5208 107.094 54.4583 107.469 54.3125C107.51 54.2917 107.562 54.2812 107.625 54.2812C107.917 54.1771 108.146 54.1979 108.312 54.3438C108.5 54.4896 108.562 54.6667 108.5 54.875C108.458 55.1042 108.24 55.2708 107.844 55.375C107.448 55.5208 107 55.6146 106.5 55.6562C106 55.6979 105.573 55.5625 105.219 55.25C104.594 54.4583 104.833 52.75 105.938 50.125C107.062 47.5208 108.688 44.4479 110.812 40.9062C112.938 37.3438 115.188 33.7708 117.562 30.1875C119.938 26.6042 122.052 23.4583 123.906 20.75C125.469 18.4792 126.594 16.8021 127.281 15.7188C127.302 15.6979 127.323 15.6667 127.344 15.625C127.51 15.375 127.812 14.8958 128.25 14.1875C128.688 13.4792 129.135 12.7083 129.594 11.875C130.073 11.0208 130.448 10.2708 130.719 9.625C131.01 8.97917 131.083 8.60417 130.938 8.5C130.771 8.4375 130.427 8.5625 129.906 8.875C129.406 9.16667 128.844 9.54167 128.219 10C127.615 10.4375 127.062 10.8542 126.562 11.25C126.083 11.6458 125.771 11.9062 125.625 12.0312C125.021 12.5312 124.073 13.3646 122.781 14.5312C121.052 16.0521 118.99 17.8333 116.594 19.875C114.198 21.9167 111.75 23.8958 109.25 25.8125C106.771 27.7292 104.531 29.2604 102.531 30.4062C100.531 31.5521 99.0625 31.9792 98.125 31.6875C97.3333 31.3333 96.9583 30.5417 97 29.3125C97.0625 28.0833 97.3646 26.6146 97.9062 24.9062C98.4479 23.1979 99.0625 21.4479 99.75 19.6562C100.646 17.3854 101.323 15.3958 101.781 13.6875C102.24 11.9792 102.125 10.9479 101.438 10.5938C100.708 10.3854 99.4583 11.0833 97.6875 12.6875C95.9167 14.2708 93.8854 16.3438 91.5938 18.9062C89.3229 21.4688 87.0729 24.1146 84.8438 26.8438C82.6146 29.5729 80.6667 31.9792 79 34.0625C77.7083 35.6875 76.7396 36.8854 76.0938 37.6562C75.8854 37.9062 75.4896 38.3438 74.9062 38.9688C74.3438 39.5938 73.75 40.1458 73.125 40.625C72.5208 41.1042 72.0625 41.2708 71.75 41.125C71.2917 40.7708 71.2396 40.0521 71.5938 38.9688C71.9688 37.8646 72.4688 36.7188 73.0938 35.5312C73.7188 34.3438 74.2188 33.4479 74.5938 32.8438C74.6562 32.7396 74.7083 32.6562 74.75 32.5938L86.1875 13.9688C86.4167 13.6146 86.8333 12.8646 87.4375 11.7188C88.0625 10.5729 88.5729 9.42708 88.9688 8.28125C89.3646 7.11458 89.3333 6.34375 88.875 5.96875C88 5.53125 86.4375 5.86458 84.1875 6.96875C81.9583 8.05208 79.4583 9.63542 76.6875 11.7188C73.9167 13.8021 71.2917 16.0938 68.8125 18.5938C66.3333 21.0938 64.4062 23.5208 63.0312 25.875C61.6771 28.2292 61.2812 30.2188 61.8438 31.8438C61.8646 31.9062 61.9062 32 61.9688 32.125C62.0312 32.25 62.0938 32.3646 62.1562 32.4688C62.2396 32.5729 62.3229 32.6146 62.4062 32.5938C62.5729 32.5104 62.7396 32.4896 62.9062 32.5312C63.0729 32.5729 63.2188 32.6562 63.3438 32.7812C64.0104 33.5729 64.2396 34.2396 64.0312 34.7812C63.8229 35.3229 63.375 35.4271 62.6875 35.0938ZM128.812 41.5625C127.354 42.9792 125.979 43.5 124.688 43.125C123.417 42.75 122.802 41.6458 122.844 39.8125C122.885 37.9583 124.188 35.5417 126.75 32.5625C127.729 31.5 128.51 30.8854 129.094 30.7188C129.573 30.5521 129.938 30.5729 130.188 30.7812C130.438 30.9688 130.448 31.3542 130.219 31.9375C129.781 32.3958 129.427 32.6771 129.156 32.7812C128.885 32.8854 128.667 32.9271 128.5 32.9062C128.417 32.9062 128.333 32.9167 128.25 32.9375C128.188 32.9375 128.125 32.9792 128.062 33.0625C126.083 35.4167 124.875 37.3125 124.438 38.75C124.021 40.1875 124.083 41.1562 124.625 41.6562C125.167 42.1771 125.896 42.1979 126.812 41.7188C127.229 41.4688 127.698 41 128.219 40.3125C128.74 39.625 129.167 38.9479 129.5 38.2812C129.562 38.1771 129.615 38.0938 129.656 38.0312C129.719 37.9479 129.75 37.875 129.75 37.8125C129.75 37.75 129.698 37.6771 129.594 37.5938C129.219 37.2188 128.896 36.7292 128.625 36.125C128.354 35.5 128.302 34.9375 128.469 34.4375C128.635 34.1042 128.948 33.9583 129.406 34C129.865 34.0417 130.302 34.2812 130.719 34.7188C131.135 35.1562 131.354 35.8125 131.375 36.6875C131.417 37.3125 131.635 37.75 132.031 38C132.427 38.2292 132.865 38.3125 133.344 38.25C133.823 38.1667 134.219 37.9792 134.531 37.6875C134.802 37.4375 134.99 37.375 135.094 37.5C135.219 37.6042 135.208 37.7917 135.062 38.0625C134.917 38.3333 134.594 38.5833 134.094 38.8125C133.302 39.125 132.688 39.2396 132.25 39.1562C131.833 39.0729 131.521 38.9583 131.312 38.8125C131.167 38.6875 131.031 38.6354 130.906 38.6562C130.781 38.6562 130.656 38.7812 130.531 39.0312C130.323 39.4062 130.052 39.8438 129.719 40.3438C129.406 40.8438 129.104 41.25 128.812 41.5625ZM132.281 41.1875C132.698 40.1667 133.333 38.9271 134.188 37.4688C135.021 36.0104 135.833 34.6146 136.625 33.2812C137.062 32.5729 137.438 31.9583 137.75 31.4375C137.625 31.2708 137.562 31.0938 137.562 30.9062C137.562 30.7188 137.625 30.5521 137.75 30.4062C138.292 29.8229 138.688 29.5 138.938 29.4375L139 29.4062C139.188 29.3438 139.354 29.3438 139.5 29.4062C139.812 29.5104 140.01 29.7083 140.094 30C140.094 30.0208 140.094 30.0521 140.094 30.0938C140.094 30.1146 140.094 30.1354 140.094 30.1562C140.094 30.3438 140.042 30.5312 139.938 30.7188C139.167 31.9688 138.302 33.3958 137.344 35C136.406 36.5833 135.573 38.0208 134.844 39.3125C135.344 38.8333 136.146 38.1458 137.25 37.25C138.375 36.3333 139.49 35.4896 140.594 34.7188C141.719 33.9271 142.521 33.5104 143 33.4688C143.75 33.4896 144.177 33.7917 144.281 34.375C144.385 34.9375 144.385 35.5729 144.281 36.2812C144.219 36.8229 144.208 37.2917 144.25 37.6875C144.292 38.0625 144.5 38.25 144.875 38.25C145.271 38.25 145.938 37.9375 146.875 37.3125C147.146 37.1458 147.333 37.1042 147.438 37.1875C147.562 37.2708 147.604 37.4167 147.562 37.625C147.521 37.8125 147.406 37.9688 147.219 38.0938C145.344 39.2812 144.104 39.5104 143.5 38.7812C142.896 38.0312 142.74 36.7604 143.031 34.9688C142.594 35.0104 141.938 35.3854 141.062 36.0938C140.188 36.7812 139.24 37.5833 138.219 38.5C137.323 39.2917 136.469 40.0208 135.656 40.6875C134.844 41.3542 134.156 41.8333 133.594 42.125C133.177 42.3125 132.823 42.3125 132.531 42.125C132.24 41.9375 132.156 41.625 132.281 41.1875ZM159.844 32.7812C158.844 33.7812 157.552 35 155.969 36.4375C154.385 37.8542 152.75 39.2083 151.062 40.5C149.375 41.7708 147.896 42.6562 146.625 43.1562C145.333 43.6771 144.5 43.5104 144.125 42.6562C143.896 41.8854 144.302 40.6562 145.344 38.9688C146.365 37.2812 147.74 35.5417 149.469 33.75C151.198 31.9583 153.021 30.5 154.938 29.375C156.854 28.25 158.594 27.8542 160.156 28.1875C160.573 28.3125 160.854 28.4375 161 28.5625C161.104 28.625 161.198 28.6771 161.281 28.7188C161.385 28.7396 161.5 28.7188 161.625 28.6562C161.75 28.5729 161.917 28.4271 162.125 28.2188C162.938 27.4688 163.604 26.7812 164.125 26.1562C164.646 25.5312 165.198 24.7292 165.781 23.75C167.552 20.7708 168.958 18.4896 170 16.9062C171.417 14.7188 173.031 12.6146 174.844 10.5938C176.656 8.57292 178.24 7.01042 179.594 5.90625C179.969 5.59375 180.417 5.36458 180.938 5.21875C181.458 5.05208 181.927 5.03125 182.344 5.15625C182.76 5.26042 183 5.57292 183.062 6.09375C182.979 6.76042 182.292 8.05208 181 9.96875C178.979 12.9062 176.812 15.6458 174.5 18.1875C172.208 20.7083 170.031 22.9167 167.969 24.8125C167.115 25.6458 166.458 26.3646 166 26.9688C165.542 27.5521 165 28.375 164.375 29.4375C162.25 32.9583 160.125 36.4271 158 39.8438C155.896 43.2604 154.125 46.1042 152.688 48.375C151.271 50.6667 150.521 51.8646 150.438 51.9688C150.292 52.1979 150.115 52.3333 149.906 52.375C149.719 52.4167 149.583 52.3646 149.5 52.2188C149.417 52.0729 149.469 51.8333 149.656 51.5C150.844 49.4375 152.323 46.8542 154.094 43.75C156.719 39.1458 158.875 35.4062 160.562 32.5312C161 31.8438 161.167 31.5312 161.062 31.5938C160.958 31.6562 160.646 31.9479 160.125 32.4688C160.042 32.5729 159.948 32.6771 159.844 32.7812ZM173.094 17.3438C175.469 14.8854 177.677 12.1771 179.719 9.21875C180.198 8.48958 180.479 8 180.562 7.75C180.646 7.47917 180.594 7.375 180.406 7.4375C180.24 7.47917 179.99 7.625 179.656 7.875C179.344 8.10417 179.021 8.36458 178.688 8.65625C178.354 8.94792 178.083 9.19792 177.875 9.40625C176.771 10.5729 175.552 11.9896 174.219 13.6562C172.906 15.3021 171.792 16.8229 170.875 18.2188C170.188 19.3229 169.76 20.0729 169.594 20.4688C169.427 20.8438 169.448 20.9688 169.656 20.8438C169.865 20.6979 170.188 20.3958 170.625 19.9375C171.083 19.4792 171.573 18.9688 172.094 18.4062C172.427 18.0312 172.76 17.6771 173.094 17.3438ZM159.938 29.4375C158.5 29.2708 156.812 29.875 154.875 31.25C152.938 32.6042 151.115 34.1979 149.406 36.0312C147.719 37.8438 146.531 39.3542 145.844 40.5625C145.531 41.125 145.354 41.5417 145.312 41.8125C145.25 42.1042 145.469 42.1146 145.969 41.8438C147.469 41.0104 149.51 39.5208 152.094 37.375C154.677 35.2083 157.354 32.8021 160.125 30.1562C160.333 29.9688 160.427 29.8229 160.406 29.7188C160.385 29.5938 160.229 29.5 159.938 29.4375ZM181.875 36.75C182.438 36.4583 182.771 36.4375 182.875 36.6875C182.979 36.9375 182.781 37.2396 182.281 37.5938C181.49 38.0729 180.469 38.5417 179.219 39C177.99 39.4375 176.885 39.5729 175.906 39.4062C174.927 39.2188 174.417 38.4271 174.375 37.0312V36.875C174.396 36.5833 174.375 36.4375 174.312 36.4375C174.25 36.4167 174.073 36.5 173.781 36.6875C170.552 38.7917 168.177 40.1042 166.656 40.625C165.156 41.1458 164.271 41.1667 164 40.6875C163.667 40.0208 164.083 38.9896 165.25 37.5938C166.417 36.1771 167.917 34.8333 169.75 33.5625C171.604 32.2917 173.375 31.5312 175.062 31.2812C176.75 31.0104 177.938 31.6771 178.625 33.2812C178.688 33.4896 178.656 33.6771 178.531 33.8438C178.406 34.0104 178.24 34.125 178.031 34.1875C177.823 34.25 177.583 34.2083 177.312 34.0625C177.062 33.9167 176.885 33.7396 176.781 33.5312C176.781 33.4896 176.792 33.4479 176.812 33.4062C176.833 33.3646 176.854 33.3229 176.875 33.2812C176.896 33.2396 176.917 33.1979 176.938 33.1562C176.958 33.1146 176.958 33.0729 176.938 33.0312C176.417 32.3229 175.521 32.2188 174.25 32.7188C172.979 33.2188 171.635 34 170.219 35.0625C168.802 36.125 167.604 37.1354 166.625 38.0938C165.646 39.0312 165.188 39.6042 165.25 39.8125C165.333 40.0208 166.156 39.6771 167.719 38.7812C169.281 37.8854 171.844 36.2083 175.406 33.75C175.594 33.6458 175.781 33.6146 175.969 33.6562C176.177 33.6771 176.344 33.7812 176.469 33.9688C176.615 34.2188 176.625 34.4688 176.5 34.7188C175.708 36.4271 175.615 37.4792 176.219 37.875C176.844 38.2708 177.729 38.3021 178.875 37.9688C180.042 37.6354 181.042 37.2292 181.875 36.75ZM169.5 59.3438C169.271 59.2396 169.177 59.0208 169.219 58.6875C169.24 58.3542 169.469 57.7917 169.906 57C170.323 56.2083 171 55.0521 171.938 53.5312C172.854 52.0104 174.083 50 175.625 47.5C177.375 44.7083 179.604 41.125 182.312 36.75C183.021 35.4167 184.469 32.9167 186.656 29.25C188.844 25.5625 191.281 21.5833 193.969 17.3125C196.656 13.0208 199.104 9.29167 201.312 6.125C203.542 2.9375 205.062 1.15625 205.875 0.78125C207.146 0.40625 207.771 0.71875 207.75 1.71875C207.75 2.69792 207.396 3.96875 206.688 5.53125C206 7.07292 205.26 8.53125 204.469 9.90625C203.698 11.2604 203.188 12.1354 202.938 12.5312C202.917 12.5521 202.906 12.5729 202.906 12.5938C200.052 17.1979 196.896 21.8229 193.438 26.4688C190 31.1146 187.354 34.2292 185.5 35.8125C185.146 36.0625 184.906 36.2188 184.781 36.2812C184.677 36.3438 184.583 36.4062 184.5 36.4688C184.438 36.5312 184.354 36.6354 184.25 36.7812C184.146 36.9271 184 37.1562 183.812 37.4688L171.406 57.6875C171.469 57.6875 171.458 57.7917 171.375 58C171.271 58.2292 171.125 58.4688 170.938 58.7188C170.75 58.9896 170.531 59.1875 170.281 59.3125C170.01 59.4583 169.75 59.4688 169.5 59.3438ZM187.375 31.7188C187.083 32.1771 186.938 32.4375 186.938 32.5C186.958 32.5625 187.156 32.3646 187.531 31.9062C189.594 29.2812 191.896 26.125 194.438 22.4375C196.979 18.75 199.323 15.1771 201.469 11.7188C204.031 7.46875 205.51 4.72917 205.906 3.5C206.323 2.27083 205.792 2.625 204.312 4.5625C202.229 7.4375 200.177 10.5104 198.156 13.7812C196.135 17.0521 194.156 20.3438 192.219 23.6562C190.573 26.4479 188.958 29.1354 187.375 31.7188Z" fill="#021718"/>
</svg>
