<svg width="1440" height="151" viewBox="0 0 1440 151" fill="none" xmlns="http://www.w3.org/2000/svg">
<g filter="url(#filter0_d_3_89)">
<path d="M938 72H1320V131C1320 135.418 1316.42 139 1312 139H946C941.582 139 938 135.418 938 131V72Z" fill="#FFFFFA"/>
</g>
<path d="M993.008 105.395C991.078 104.84 989.672 104.16 988.789 103.355C987.914 102.543 987.477 101.543 987.477 100.355C987.477 99.0117 988.012 97.9023 989.082 97.0273C990.16 96.1445 991.559 95.7031 993.277 95.7031C994.449 95.7031 995.492 95.9297 996.406 96.3828C997.328 96.8359 998.039 97.4609 998.539 98.2578C999.047 99.0547 999.301 99.9258 999.301 100.871H997.039C997.039 99.8398 996.711 99.0312 996.055 98.4453C995.398 97.8516 994.473 97.5547 993.277 97.5547C992.168 97.5547 991.301 97.8008 990.676 98.293C990.059 98.7773 989.75 99.4531 989.75 100.32C989.75 101.016 990.043 101.605 990.629 102.09C991.223 102.566 992.227 103.004 993.641 103.402C995.062 103.801 996.172 104.242 996.969 104.727C997.773 105.203 998.367 105.762 998.75 106.402C999.141 107.043 999.336 107.797 999.336 108.664C999.336 110.047 998.797 111.156 997.719 111.992C996.641 112.82 995.199 113.234 993.395 113.234C992.223 113.234 991.129 113.012 990.113 112.566C989.098 112.113 988.312 111.496 987.758 110.715C987.211 109.934 986.938 109.047 986.938 108.055H989.199C989.199 109.086 989.578 109.902 990.336 110.504C991.102 111.098 992.121 111.395 993.395 111.395C994.582 111.395 995.492 111.152 996.125 110.668C996.758 110.184 997.074 109.523 997.074 108.688C997.074 107.852 996.781 107.207 996.195 106.754C995.609 106.293 994.547 105.84 993.008 105.395ZM1007.15 113.234C1005.43 113.234 1004.04 112.672 1002.96 111.547C1001.88 110.414 1001.34 108.902 1001.34 107.012V106.613C1001.34 105.355 1001.58 104.234 1002.05 103.25C1002.54 102.258 1003.21 101.484 1004.07 100.93C1004.94 100.367 1005.88 100.086 1006.88 100.086C1008.53 100.086 1009.81 100.629 1010.73 101.715C1011.64 102.801 1012.1 104.355 1012.1 106.379V107.281H1003.51C1003.54 108.531 1003.9 109.543 1004.6 110.316C1005.3 111.082 1006.19 111.465 1007.27 111.465C1008.04 111.465 1008.68 111.309 1009.21 110.996C1009.75 110.684 1010.21 110.27 1010.61 109.754L1011.93 110.785C1010.87 112.418 1009.28 113.234 1007.15 113.234ZM1006.88 101.867C1006.01 101.867 1005.27 102.188 1004.68 102.828C1004.09 103.461 1003.72 104.352 1003.58 105.5H1009.93V105.336C1009.87 104.234 1009.57 103.383 1009.04 102.781C1008.51 102.172 1007.79 101.867 1006.88 101.867ZM1022.45 113C1022.32 112.75 1022.22 112.305 1022.14 111.664C1021.13 112.711 1019.93 113.234 1018.53 113.234C1017.28 113.234 1016.25 112.883 1015.45 112.18C1014.65 111.469 1014.25 110.57 1014.25 109.484C1014.25 108.164 1014.75 107.141 1015.75 106.414C1016.76 105.68 1018.18 105.312 1020 105.312H1022.11V104.316C1022.11 103.559 1021.88 102.957 1021.43 102.512C1020.97 102.059 1020.3 101.832 1019.42 101.832C1018.65 101.832 1018 102.027 1017.48 102.418C1016.95 102.809 1016.69 103.281 1016.69 103.836H1014.51C1014.51 103.203 1014.73 102.594 1015.18 102.008C1015.63 101.414 1016.24 100.945 1017.01 100.602C1017.78 100.258 1018.63 100.086 1019.55 100.086C1021.01 100.086 1022.16 100.453 1022.98 101.188C1023.81 101.914 1024.24 102.918 1024.27 104.199V110.035C1024.27 111.199 1024.42 112.125 1024.72 112.812V113H1022.45ZM1018.85 111.348C1019.53 111.348 1020.17 111.172 1020.78 110.82C1021.39 110.469 1021.83 110.012 1022.11 109.449V106.848H1020.41C1017.75 106.848 1016.42 107.625 1016.42 109.18C1016.42 109.859 1016.65 110.391 1017.1 110.773C1017.55 111.156 1018.14 111.348 1018.85 111.348ZM1033.8 102.266C1033.47 102.211 1033.12 102.184 1032.73 102.184C1031.31 102.184 1030.35 102.789 1029.84 104V113H1027.67V100.32H1029.78L1029.82 101.785C1030.53 100.652 1031.54 100.086 1032.84 100.086C1033.26 100.086 1033.58 100.141 1033.8 100.25V102.266ZM1040.66 111.465C1041.43 111.465 1042.11 111.23 1042.68 110.762C1043.26 110.293 1043.58 109.707 1043.64 109.004H1045.7C1045.66 109.73 1045.41 110.422 1044.95 111.078C1044.48 111.734 1043.87 112.258 1043.09 112.648C1042.33 113.039 1041.52 113.234 1040.66 113.234C1038.93 113.234 1037.55 112.66 1036.53 111.512C1035.52 110.355 1035.01 108.777 1035.01 106.777V106.414C1035.01 105.18 1035.23 104.082 1035.69 103.121C1036.14 102.16 1036.79 101.414 1037.63 100.883C1038.48 100.352 1039.49 100.086 1040.64 100.086C1042.07 100.086 1043.25 100.512 1044.18 101.363C1045.13 102.215 1045.63 103.32 1045.7 104.68H1043.64C1043.58 103.859 1043.27 103.188 1042.71 102.664C1042.15 102.133 1041.46 101.867 1040.64 101.867C1039.54 101.867 1038.69 102.266 1038.08 103.062C1037.48 103.852 1037.18 104.996 1037.18 106.496V106.906C1037.18 108.367 1037.48 109.492 1038.08 110.281C1038.68 111.07 1039.54 111.465 1040.66 111.465ZM1050.3 101.855C1051.26 100.676 1052.51 100.086 1054.05 100.086C1056.73 100.086 1058.08 101.598 1058.11 104.621V113H1055.94V104.609C1055.93 103.695 1055.72 103.02 1055.3 102.582C1054.9 102.145 1054.26 101.926 1053.39 101.926C1052.69 101.926 1052.07 102.113 1051.54 102.488C1051.01 102.863 1050.6 103.355 1050.3 103.965V113H1048.13V95H1050.3V101.855ZM1069.47 101.855C1070.43 100.676 1071.68 100.086 1073.22 100.086C1075.9 100.086 1077.25 101.598 1077.28 104.621V113H1075.11V104.609C1075.1 103.695 1074.89 103.02 1074.48 102.582C1074.07 102.145 1073.43 101.926 1072.57 101.926C1071.86 101.926 1071.25 102.113 1070.71 102.488C1070.18 102.863 1069.77 103.355 1069.47 103.965V113H1067.3V95H1069.47V101.855ZM1085.79 113.234C1084.07 113.234 1082.67 112.672 1081.59 111.547C1080.51 110.414 1079.97 108.902 1079.97 107.012V106.613C1079.97 105.355 1080.21 104.234 1080.69 103.25C1081.17 102.258 1081.84 101.484 1082.7 100.93C1083.57 100.367 1084.51 100.086 1085.52 100.086C1087.16 100.086 1088.45 100.629 1089.36 101.715C1090.27 102.801 1090.73 104.355 1090.73 106.379V107.281H1082.14C1082.17 108.531 1082.54 109.543 1083.23 110.316C1083.93 111.082 1084.82 111.465 1085.9 111.465C1086.67 111.465 1087.32 111.309 1087.85 110.996C1088.38 110.684 1088.84 110.27 1089.24 109.754L1090.57 110.785C1089.5 112.418 1087.91 113.234 1085.79 113.234ZM1085.52 101.867C1084.64 101.867 1083.91 102.188 1083.31 102.828C1082.72 103.461 1082.35 104.352 1082.21 105.5H1088.56V105.336C1088.5 104.234 1088.2 103.383 1087.67 102.781C1087.14 102.172 1086.42 101.867 1085.52 101.867ZM1099.38 102.266C1099.05 102.211 1098.7 102.184 1098.31 102.184C1096.89 102.184 1095.93 102.789 1095.42 104V113H1093.25V100.32H1095.36L1095.39 101.785C1096.11 100.652 1097.11 100.086 1098.42 100.086C1098.84 100.086 1099.16 100.141 1099.38 100.25V102.266ZM1106.41 113.234C1104.69 113.234 1103.29 112.672 1102.21 111.547C1101.14 110.414 1100.6 108.902 1100.6 107.012V106.613C1100.6 105.355 1100.84 104.234 1101.31 103.25C1101.8 102.258 1102.47 101.484 1103.33 100.93C1104.2 100.367 1105.13 100.086 1106.14 100.086C1107.79 100.086 1109.07 100.629 1109.98 101.715C1110.9 102.801 1111.36 104.355 1111.36 106.379V107.281H1102.77C1102.8 108.531 1103.16 109.543 1103.86 110.316C1104.56 111.082 1105.45 111.465 1106.53 111.465C1107.29 111.465 1107.94 111.309 1108.47 110.996C1109 110.684 1109.47 110.27 1109.87 109.754L1111.19 110.785C1110.13 112.418 1108.54 113.234 1106.41 113.234ZM1106.14 101.867C1105.27 101.867 1104.53 102.188 1103.94 102.828C1103.34 103.461 1102.98 104.352 1102.84 105.5H1109.19V105.336C1109.12 104.234 1108.83 103.383 1108.3 102.781C1107.77 102.172 1107.05 101.867 1106.14 101.867ZM1113.92 111.863C1113.92 111.488 1114.03 111.176 1114.25 110.926C1114.48 110.676 1114.81 110.551 1115.26 110.551C1115.7 110.551 1116.04 110.676 1116.27 110.926C1116.5 111.176 1116.62 111.488 1116.62 111.863C1116.62 112.223 1116.5 112.523 1116.27 112.766C1116.04 113.008 1115.7 113.129 1115.26 113.129C1114.81 113.129 1114.48 113.008 1114.25 112.766C1114.03 112.523 1113.92 112.223 1113.92 111.863ZM1120.25 111.863C1120.25 111.488 1120.36 111.176 1120.58 110.926C1120.8 110.676 1121.14 110.551 1121.59 110.551C1122.03 110.551 1122.37 110.676 1122.59 110.926C1122.83 111.176 1122.95 111.488 1122.95 111.863C1122.95 112.223 1122.83 112.523 1122.59 112.766C1122.37 113.008 1122.03 113.129 1121.59 113.129C1121.14 113.129 1120.8 113.008 1120.58 112.766C1120.36 112.523 1120.25 112.223 1120.25 111.863ZM1126.58 111.863C1126.58 111.488 1126.69 111.176 1126.91 110.926C1127.13 110.676 1127.47 110.551 1127.91 110.551C1128.36 110.551 1128.7 110.676 1128.92 110.926C1129.16 111.176 1129.27 111.488 1129.27 111.863C1129.27 112.223 1129.16 112.523 1128.92 112.766C1128.7 113.008 1128.36 113.129 1127.91 113.129C1127.47 113.129 1127.13 113.008 1126.91 112.766C1126.69 112.523 1126.58 112.223 1126.58 111.863Z" fill="black" fill-opacity="0.5"/>
<rect x="983" y="86" width="1" height="33" fill="#021718"/>
<g filter="url(#filter1_d_3_89)">
<rect width="1440" height="72" fill="#FFFFFA"/>
</g>
<path d="M64.1562 31.6875C61.3646 30.6875 59.9583 29.4271 59.9375 27.9062C59.9375 26.3854 60.7188 24.8125 62.2812 23.1875C63.8438 21.5417 65.6146 20.0625 67.5938 18.75C69.5938 17.4375 71.2188 16.4896 72.4688 15.9062C77.2396 13.6771 82.2708 12.0104 87.5625 10.9062C92.875 9.80208 97.8229 9.38542 102.406 9.65625C107.01 9.92708 110.635 11.0208 113.281 12.9375C115.927 14.8333 116.979 17.6667 116.438 21.4375C115.917 25.2083 113.177 30.0312 108.219 35.9062C102.344 42.6562 95.125 48.4271 86.5625 53.2188C78.0208 58.0312 69.3333 61.1979 60.5 62.7188C59.9375 62.8229 59.0729 62.9479 57.9062 63.0938C56.7604 63.2396 55.6354 63.2812 54.5312 63.2188C53.4479 63.1771 52.7292 62.9167 52.375 62.4375C52.125 61.9375 52.1458 61.5729 52.4375 61.3438C52.75 61.1354 53.1458 61.1875 53.625 61.5C54.5208 61.7917 55.8438 61.8021 57.5938 61.5312C59.3646 61.2604 60.8958 60.9792 62.1875 60.6875C62.3542 60.6458 62.5104 60.6146 62.6562 60.5938C70.9479 58.8229 79.0312 55.6354 86.9062 51.0312C94.8021 46.4479 101.479 41.0312 106.938 34.7812C111.688 29.1354 114.281 24.5938 114.719 21.1562C115.177 17.7188 114.094 15.2188 111.469 13.6562C108.844 12.0729 105.323 11.2604 100.906 11.2188C96.5104 11.1562 91.8333 11.6875 86.875 12.8125C81.9375 13.9375 77.3646 15.4896 73.1562 17.4688C72.3021 17.8646 71.0104 18.6042 69.2812 19.6875C67.5729 20.75 65.9583 21.9688 64.4375 23.3438C62.9375 24.7188 62.0625 26.0625 61.8125 27.375C61.5625 28.6875 62.4792 29.7812 64.5625 30.6562C64.8125 30.7812 64.9583 30.9479 65 31.1562C65.0625 31.3438 65.0208 31.5104 64.875 31.6562C64.7292 31.7812 64.4896 31.7917 64.1562 31.6875ZM67.9062 48.25C68.9896 45.3125 71 41.5208 73.9375 36.875C76.8958 32.2083 79.5312 28.1875 81.8438 24.8125C82.3021 24.1667 82.6979 23.5833 83.0312 23.0625C83.3438 22.6042 83.5104 22.2604 83.5312 22.0312C83.5729 21.8021 83.5417 21.6458 83.4375 21.5625C83.3333 21.4583 83.2083 21.375 83.0625 21.3125C82.9375 21.2917 82.8333 21.25 82.75 21.1875C82.6875 21.125 82.6771 21.0417 82.7188 20.9375C82.7604 20.8125 82.875 20.6354 83.0625 20.4062C83.3542 20.0729 83.8646 19.5521 84.5938 18.8438C85.3229 18.1354 86.0625 17.5104 86.8125 16.9688C87.5625 16.4271 88.1146 16.25 88.4688 16.4375C88.6979 16.6042 88.7604 16.8646 88.6562 17.2188C88.5729 17.5729 88.4062 17.9479 88.1562 18.3438C87.9062 18.7396 87.6771 19.0938 87.4688 19.4062C87.3438 19.5938 87.2396 19.7396 87.1562 19.8438C85.9688 21.6979 84.3438 24.1146 82.2812 27.0938C79.5729 30.9688 76.8958 34.9375 74.25 39C71.625 43.0625 69.8854 46.2812 69.0312 48.6562C68.9271 49.0521 68.7604 49.2708 68.5312 49.3125C68.3021 49.375 68.1146 49.3021 67.9688 49.0938C67.8229 48.8854 67.8021 48.6042 67.9062 48.25ZM114.688 41.0938C113.5 40.4896 112.656 39.5729 112.156 38.3438C111.51 36.4062 111.896 34.1458 113.312 31.5625C114.75 28.9792 116.781 26.3542 119.406 23.6875C122.031 21.0208 124.833 18.6146 127.812 16.4688C130.812 14.3021 133.562 12.6979 136.062 11.6562C138.562 10.5938 140.406 10.375 141.594 11C142.51 11.6458 142.854 12.625 142.625 13.9375C142.417 15.25 141.969 16.5625 141.281 17.875C140.615 19.1875 140.073 20.1771 139.656 20.8438L128.219 39.4688C127.76 40.2396 127.354 40.9167 127 41.5C124.917 44.7917 125.312 44.5417 128.188 40.75C128.354 40.5417 128.521 40.3333 128.688 40.125C129.688 38.8125 131.323 36.75 133.594 33.9375C135.885 31.125 138.396 28.1979 141.125 25.1562C143.875 22.0938 146.427 19.5625 148.781 17.5625C151.156 15.5417 152.917 14.6875 154.062 15C155.021 15.4375 155.458 16.4375 155.375 18C155.312 19.5417 154.958 21.3542 154.312 23.4375C153.688 25.5208 153.01 27.5625 152.281 29.5625C151.615 31.4375 151.094 33.0208 150.719 34.3125C150.365 35.5833 150.344 36.3125 150.656 36.5C151.469 36.6667 153.177 35.8125 155.781 33.9375C158.385 32.0417 161.271 29.7604 164.438 27.0938C167.625 24.4271 170.49 21.9896 173.031 19.7812C175.323 17.8021 176.875 16.4896 177.688 15.8438C177.75 15.7812 177.833 15.7188 177.938 15.6562C178.396 15.2812 179.021 14.8229 179.812 14.2812C180.625 13.7188 181.427 13.2604 182.219 12.9062C183.031 12.5312 183.656 12.4375 184.094 12.625C184.74 12.9792 184.927 13.6979 184.656 14.7812C184.406 15.8646 183.979 17 183.375 18.1875C182.771 19.375 182.292 20.2604 181.938 20.8438C181.875 20.9271 181.833 21 181.812 21.0625C180.104 23.9375 177.427 28.0625 173.781 33.4375C171.427 36.9167 169.083 40.4479 166.75 44.0312C164.438 47.5938 162.479 50.7812 160.875 53.5938C159.271 56.4062 158.385 58.4375 158.219 59.6875C158.177 60.2083 158.281 60.4792 158.531 60.5C158.781 60.5208 159.094 60.4583 159.469 60.3125C159.51 60.2917 159.562 60.2812 159.625 60.2812C159.917 60.1771 160.146 60.1979 160.312 60.3438C160.5 60.4896 160.562 60.6667 160.5 60.875C160.458 61.1042 160.24 61.2708 159.844 61.375C159.448 61.5208 159 61.6146 158.5 61.6562C158 61.6979 157.573 61.5625 157.219 61.25C156.594 60.4583 156.833 58.75 157.938 56.125C159.062 53.5208 160.688 50.4479 162.812 46.9062C164.938 43.3438 167.188 39.7708 169.562 36.1875C171.938 32.6042 174.052 29.4583 175.906 26.75C177.469 24.4792 178.594 22.8021 179.281 21.7188C179.302 21.6979 179.323 21.6667 179.344 21.625C179.51 21.375 179.812 20.8958 180.25 20.1875C180.688 19.4792 181.135 18.7083 181.594 17.875C182.073 17.0208 182.448 16.2708 182.719 15.625C183.01 14.9792 183.083 14.6042 182.938 14.5C182.771 14.4375 182.427 14.5625 181.906 14.875C181.406 15.1667 180.844 15.5417 180.219 16C179.615 16.4375 179.062 16.8542 178.562 17.25C178.083 17.6458 177.771 17.9062 177.625 18.0312C177.021 18.5312 176.073 19.3646 174.781 20.5312C173.052 22.0521 170.99 23.8333 168.594 25.875C166.198 27.9167 163.75 29.8958 161.25 31.8125C158.771 33.7292 156.531 35.2604 154.531 36.4062C152.531 37.5521 151.062 37.9792 150.125 37.6875C149.333 37.3333 148.958 36.5417 149 35.3125C149.062 34.0833 149.365 32.6146 149.906 30.9062C150.448 29.1979 151.062 27.4479 151.75 25.6562C152.646 23.3854 153.323 21.3958 153.781 19.6875C154.24 17.9792 154.125 16.9479 153.438 16.5938C152.708 16.3854 151.458 17.0833 149.688 18.6875C147.917 20.2708 145.885 22.3438 143.594 24.9062C141.323 27.4688 139.073 30.1146 136.844 32.8438C134.615 35.5729 132.667 37.9792 131 40.0625C129.708 41.6875 128.74 42.8854 128.094 43.6562C127.885 43.9062 127.49 44.3438 126.906 44.9688C126.344 45.5938 125.75 46.1458 125.125 46.625C124.521 47.1042 124.062 47.2708 123.75 47.125C123.292 46.7708 123.24 46.0521 123.594 44.9688C123.969 43.8646 124.469 42.7188 125.094 41.5312C125.719 40.3438 126.219 39.4479 126.594 38.8438C126.656 38.7396 126.708 38.6562 126.75 38.5938L138.188 19.9688C138.417 19.6146 138.833 18.8646 139.438 17.7188C140.062 16.5729 140.573 15.4271 140.969 14.2812C141.365 13.1146 141.333 12.3438 140.875 11.9688C140 11.5312 138.438 11.8646 136.188 12.9688C133.958 14.0521 131.458 15.6354 128.688 17.7188C125.917 19.8021 123.292 22.0938 120.812 24.5938C118.333 27.0938 116.406 29.5208 115.031 31.875C113.677 34.2292 113.281 36.2188 113.844 37.8438C113.865 37.9062 113.906 38 113.969 38.125C114.031 38.25 114.094 38.3646 114.156 38.4688C114.24 38.5729 114.323 38.6146 114.406 38.5938C114.573 38.5104 114.74 38.4896 114.906 38.5312C115.073 38.5729 115.219 38.6562 115.344 38.7812C116.01 39.5729 116.24 40.2396 116.031 40.7812C115.823 41.3229 115.375 41.4271 114.688 41.0938ZM180.812 47.5625C179.354 48.9792 177.979 49.5 176.688 49.125C175.417 48.75 174.802 47.6458 174.844 45.8125C174.885 43.9583 176.188 41.5417 178.75 38.5625C179.729 37.5 180.51 36.8854 181.094 36.7188C181.573 36.5521 181.938 36.5729 182.188 36.7812C182.438 36.9688 182.448 37.3542 182.219 37.9375C181.781 38.3958 181.427 38.6771 181.156 38.7812C180.885 38.8854 180.667 38.9271 180.5 38.9062C180.417 38.9062 180.333 38.9167 180.25 38.9375C180.188 38.9375 180.125 38.9792 180.062 39.0625C178.083 41.4167 176.875 43.3125 176.438 44.75C176.021 46.1875 176.083 47.1562 176.625 47.6562C177.167 48.1771 177.896 48.1979 178.812 47.7188C179.229 47.4688 179.698 47 180.219 46.3125C180.74 45.625 181.167 44.9479 181.5 44.2812C181.562 44.1771 181.615 44.0938 181.656 44.0312C181.719 43.9479 181.75 43.875 181.75 43.8125C181.75 43.75 181.698 43.6771 181.594 43.5938C181.219 43.2188 180.896 42.7292 180.625 42.125C180.354 41.5 180.302 40.9375 180.469 40.4375C180.635 40.1042 180.948 39.9583 181.406 40C181.865 40.0417 182.302 40.2812 182.719 40.7188C183.135 41.1562 183.354 41.8125 183.375 42.6875C183.417 43.3125 183.635 43.75 184.031 44C184.427 44.2292 184.865 44.3125 185.344 44.25C185.823 44.1667 186.219 43.9792 186.531 43.6875C186.802 43.4375 186.99 43.375 187.094 43.5C187.219 43.6042 187.208 43.7917 187.062 44.0625C186.917 44.3333 186.594 44.5833 186.094 44.8125C185.302 45.125 184.688 45.2396 184.25 45.1562C183.833 45.0729 183.521 44.9583 183.312 44.8125C183.167 44.6875 183.031 44.6354 182.906 44.6562C182.781 44.6562 182.656 44.7812 182.531 45.0312C182.323 45.4062 182.052 45.8438 181.719 46.3438C181.406 46.8438 181.104 47.25 180.812 47.5625ZM184.281 47.1875C184.698 46.1667 185.333 44.9271 186.188 43.4688C187.021 42.0104 187.833 40.6146 188.625 39.2812C189.062 38.5729 189.438 37.9583 189.75 37.4375C189.625 37.2708 189.562 37.0938 189.562 36.9062C189.562 36.7188 189.625 36.5521 189.75 36.4062C190.292 35.8229 190.688 35.5 190.938 35.4375L191 35.4062C191.188 35.3438 191.354 35.3438 191.5 35.4062C191.812 35.5104 192.01 35.7083 192.094 36C192.094 36.0208 192.094 36.0521 192.094 36.0938C192.094 36.1146 192.094 36.1354 192.094 36.1562C192.094 36.3438 192.042 36.5312 191.938 36.7188C191.167 37.9688 190.302 39.3958 189.344 41C188.406 42.5833 187.573 44.0208 186.844 45.3125C187.344 44.8333 188.146 44.1458 189.25 43.25C190.375 42.3333 191.49 41.4896 192.594 40.7188C193.719 39.9271 194.521 39.5104 195 39.4688C195.75 39.4896 196.177 39.7917 196.281 40.375C196.385 40.9375 196.385 41.5729 196.281 42.2812C196.219 42.8229 196.208 43.2917 196.25 43.6875C196.292 44.0625 196.5 44.25 196.875 44.25C197.271 44.25 197.938 43.9375 198.875 43.3125C199.146 43.1458 199.333 43.1042 199.438 43.1875C199.562 43.2708 199.604 43.4167 199.562 43.625C199.521 43.8125 199.406 43.9688 199.219 44.0938C197.344 45.2812 196.104 45.5104 195.5 44.7812C194.896 44.0312 194.74 42.7604 195.031 40.9688C194.594 41.0104 193.938 41.3854 193.062 42.0938C192.188 42.7812 191.24 43.5833 190.219 44.5C189.323 45.2917 188.469 46.0208 187.656 46.6875C186.844 47.3542 186.156 47.8333 185.594 48.125C185.177 48.3125 184.823 48.3125 184.531 48.125C184.24 47.9375 184.156 47.625 184.281 47.1875ZM211.844 38.7812C210.844 39.7812 209.552 41 207.969 42.4375C206.385 43.8542 204.75 45.2083 203.062 46.5C201.375 47.7708 199.896 48.6562 198.625 49.1562C197.333 49.6771 196.5 49.5104 196.125 48.6562C195.896 47.8854 196.302 46.6562 197.344 44.9688C198.365 43.2812 199.74 41.5417 201.469 39.75C203.198 37.9583 205.021 36.5 206.938 35.375C208.854 34.25 210.594 33.8542 212.156 34.1875C212.573 34.3125 212.854 34.4375 213 34.5625C213.104 34.625 213.198 34.6771 213.281 34.7188C213.385 34.7396 213.5 34.7188 213.625 34.6562C213.75 34.5729 213.917 34.4271 214.125 34.2188C214.938 33.4688 215.604 32.7812 216.125 32.1562C216.646 31.5312 217.198 30.7292 217.781 29.75C219.552 26.7708 220.958 24.4896 222 22.9062C223.417 20.7188 225.031 18.6146 226.844 16.5938C228.656 14.5729 230.24 13.0104 231.594 11.9062C231.969 11.5938 232.417 11.3646 232.938 11.2188C233.458 11.0521 233.927 11.0312 234.344 11.1562C234.76 11.2604 235 11.5729 235.062 12.0938C234.979 12.7604 234.292 14.0521 233 15.9688C230.979 18.9062 228.812 21.6458 226.5 24.1875C224.208 26.7083 222.031 28.9167 219.969 30.8125C219.115 31.6458 218.458 32.3646 218 32.9688C217.542 33.5521 217 34.375 216.375 35.4375C214.25 38.9583 212.125 42.4271 210 45.8438C207.896 49.2604 206.125 52.1042 204.688 54.375C203.271 56.6667 202.521 57.8646 202.438 57.9688C202.292 58.1979 202.115 58.3333 201.906 58.375C201.719 58.4167 201.583 58.3646 201.5 58.2188C201.417 58.0729 201.469 57.8333 201.656 57.5C202.844 55.4375 204.323 52.8542 206.094 49.75C208.719 45.1458 210.875 41.4062 212.562 38.5312C213 37.8438 213.167 37.5312 213.062 37.5938C212.958 37.6562 212.646 37.9479 212.125 38.4688C212.042 38.5729 211.948 38.6771 211.844 38.7812ZM225.094 23.3438C227.469 20.8854 229.677 18.1771 231.719 15.2188C232.198 14.4896 232.479 14 232.562 13.75C232.646 13.4792 232.594 13.375 232.406 13.4375C232.24 13.4792 231.99 13.625 231.656 13.875C231.344 14.1042 231.021 14.3646 230.688 14.6562C230.354 14.9479 230.083 15.1979 229.875 15.4062C228.771 16.5729 227.552 17.9896 226.219 19.6562C224.906 21.3021 223.792 22.8229 222.875 24.2188C222.188 25.3229 221.76 26.0729 221.594 26.4688C221.427 26.8438 221.448 26.9688 221.656 26.8438C221.865 26.6979 222.188 26.3958 222.625 25.9375C223.083 25.4792 223.573 24.9688 224.094 24.4062C224.427 24.0312 224.76 23.6771 225.094 23.3438ZM211.938 35.4375C210.5 35.2708 208.812 35.875 206.875 37.25C204.938 38.6042 203.115 40.1979 201.406 42.0312C199.719 43.8438 198.531 45.3542 197.844 46.5625C197.531 47.125 197.354 47.5417 197.312 47.8125C197.25 48.1042 197.469 48.1146 197.969 47.8438C199.469 47.0104 201.51 45.5208 204.094 43.375C206.677 41.2083 209.354 38.8021 212.125 36.1562C212.333 35.9688 212.427 35.8229 212.406 35.7188C212.385 35.5938 212.229 35.5 211.938 35.4375ZM233.875 42.75C234.438 42.4583 234.771 42.4375 234.875 42.6875C234.979 42.9375 234.781 43.2396 234.281 43.5938C233.49 44.0729 232.469 44.5417 231.219 45C229.99 45.4375 228.885 45.5729 227.906 45.4062C226.927 45.2188 226.417 44.4271 226.375 43.0312V42.875C226.396 42.5833 226.375 42.4375 226.312 42.4375C226.25 42.4167 226.073 42.5 225.781 42.6875C222.552 44.7917 220.177 46.1042 218.656 46.625C217.156 47.1458 216.271 47.1667 216 46.6875C215.667 46.0208 216.083 44.9896 217.25 43.5938C218.417 42.1771 219.917 40.8333 221.75 39.5625C223.604 38.2917 225.375 37.5312 227.062 37.2812C228.75 37.0104 229.938 37.6771 230.625 39.2812C230.688 39.4896 230.656 39.6771 230.531 39.8438C230.406 40.0104 230.24 40.125 230.031 40.1875C229.823 40.25 229.583 40.2083 229.312 40.0625C229.062 39.9167 228.885 39.7396 228.781 39.5312C228.781 39.4896 228.792 39.4479 228.812 39.4062C228.833 39.3646 228.854 39.3229 228.875 39.2812C228.896 39.2396 228.917 39.1979 228.938 39.1562C228.958 39.1146 228.958 39.0729 228.938 39.0312C228.417 38.3229 227.521 38.2188 226.25 38.7188C224.979 39.2188 223.635 40 222.219 41.0625C220.802 42.125 219.604 43.1354 218.625 44.0938C217.646 45.0312 217.188 45.6042 217.25 45.8125C217.333 46.0208 218.156 45.6771 219.719 44.7812C221.281 43.8854 223.844 42.2083 227.406 39.75C227.594 39.6458 227.781 39.6146 227.969 39.6562C228.177 39.6771 228.344 39.7812 228.469 39.9688C228.615 40.2188 228.625 40.4688 228.5 40.7188C227.708 42.4271 227.615 43.4792 228.219 43.875C228.844 44.2708 229.729 44.3021 230.875 43.9688C232.042 43.6354 233.042 43.2292 233.875 42.75ZM221.5 65.3438C221.271 65.2396 221.177 65.0208 221.219 64.6875C221.24 64.3542 221.469 63.7917 221.906 63C222.323 62.2083 223 61.0521 223.938 59.5312C224.854 58.0104 226.083 56 227.625 53.5C229.375 50.7083 231.604 47.125 234.312 42.75C235.021 41.4167 236.469 38.9167 238.656 35.25C240.844 31.5625 243.281 27.5833 245.969 23.3125C248.656 19.0208 251.104 15.2917 253.312 12.125C255.542 8.9375 257.062 7.15625 257.875 6.78125C259.146 6.40625 259.771 6.71875 259.75 7.71875C259.75 8.69792 259.396 9.96875 258.688 11.5312C258 13.0729 257.26 14.5312 256.469 15.9062C255.698 17.2604 255.188 18.1354 254.938 18.5312C254.917 18.5521 254.906 18.5729 254.906 18.5938C252.052 23.1979 248.896 27.8229 245.438 32.4688C242 37.1146 239.354 40.2292 237.5 41.8125C237.146 42.0625 236.906 42.2188 236.781 42.2812C236.677 42.3438 236.583 42.4062 236.5 42.4688C236.438 42.5312 236.354 42.6354 236.25 42.7812C236.146 42.9271 236 43.1562 235.812 43.4688L223.406 63.6875C223.469 63.6875 223.458 63.7917 223.375 64C223.271 64.2292 223.125 64.4688 222.938 64.7188C222.75 64.9896 222.531 65.1875 222.281 65.3125C222.01 65.4583 221.75 65.4688 221.5 65.3438ZM239.375 37.7188C239.083 38.1771 238.938 38.4375 238.938 38.5C238.958 38.5625 239.156 38.3646 239.531 37.9062C241.594 35.2812 243.896 32.125 246.438 28.4375C248.979 24.75 251.323 21.1771 253.469 17.7188C256.031 13.4688 257.51 10.7292 257.906 9.5C258.323 8.27083 257.792 8.625 256.312 10.5625C254.229 13.4375 252.177 16.5104 250.156 19.7812C248.135 23.0521 246.156 26.3438 244.219 29.6562C242.573 32.4479 240.958 35.1354 239.375 37.7188Z" fill="#021718"/>
<g clip-path="url(#clip0_3_89)">
<path d="M1313.75 29.0125L1311.99 27.25L1305 34.2375L1298.01 27.25L1296.25 29.0125L1303.24 36L1296.25 42.9875L1298.01 44.75L1305 37.7625L1311.99 44.75L1313.75 42.9875L1306.76 36L1313.75 29.0125Z" fill="black"/>
</g>
<path d="M778.024 32.656C779.192 32.656 780.232 32.928 781.144 33.472C782.056 34.016 782.768 34.8 783.28 35.824C783.808 36.848 784.072 38.048 784.072 39.424C784.072 40.8 783.808 42 783.28 43.024C782.768 44.032 782.056 44.808 781.144 45.352C780.232 45.896 779.192 46.168 778.024 46.168C776.744 46.168 775.656 45.848 774.76 45.208C773.88 44.552 773.272 43.696 772.936 42.64V46H770.752V28.24H772.936V36.184C773.272 35.128 773.88 34.28 774.76 33.64C775.656 32.984 776.744 32.656 778.024 32.656ZM777.4 34.6C776.552 34.6 775.784 34.8 775.096 35.2C774.408 35.584 773.872 36.144 773.488 36.88C773.104 37.616 772.912 38.464 772.912 39.424C772.912 40.384 773.104 41.232 773.488 41.968C773.872 42.688 774.408 43.248 775.096 43.648C775.784 44.048 776.552 44.248 777.4 44.248C778.76 44.248 779.84 43.824 780.64 42.976C781.456 42.112 781.864 40.928 781.864 39.424C781.864 37.92 781.456 36.744 780.64 35.896C779.84 35.032 778.76 34.6 777.4 34.6ZM789.108 28.24V46H786.924V28.24H789.108ZM798.595 32.656C799.859 32.656 800.987 32.928 801.979 33.472C802.987 34.016 803.771 34.8 804.331 35.824C804.907 36.848 805.195 38.048 805.195 39.424C805.195 40.8 804.907 42 804.331 43.024C803.771 44.032 802.987 44.808 801.979 45.352C800.987 45.896 799.859 46.168 798.595 46.168C797.331 46.168 796.195 45.896 795.187 45.352C794.195 44.808 793.411 44.032 792.835 43.024C792.259 42 791.971 40.8 791.971 39.424C791.971 38.048 792.259 36.848 792.835 35.824C793.411 34.8 794.195 34.016 795.187 33.472C796.195 32.928 797.331 32.656 798.595 32.656ZM798.595 34.576C797.811 34.576 797.083 34.752 796.411 35.104C795.755 35.456 795.219 36 794.803 36.736C794.403 37.456 794.203 38.352 794.203 39.424C794.203 40.48 794.403 41.376 794.803 42.112C795.219 42.832 795.755 43.368 796.411 43.72C797.083 44.072 797.811 44.248 798.595 44.248C799.379 44.248 800.099 44.072 800.755 43.72C801.427 43.368 801.963 42.832 802.363 42.112C802.779 41.376 802.987 40.48 802.987 39.424C802.987 38.352 802.779 37.456 802.363 36.736C801.963 36 801.427 35.456 800.755 35.104C800.099 34.752 799.379 34.576 798.595 34.576ZM813.441 32.656C814.721 32.656 815.801 32.976 816.681 33.616C817.577 34.256 818.201 35.112 818.553 36.184V32.824H820.737V46.216C820.737 47.432 820.481 48.512 819.969 49.456C819.457 50.4 818.737 51.136 817.809 51.664C816.881 52.192 815.801 52.456 814.569 52.456C812.793 52.456 811.345 52.024 810.225 51.16C809.105 50.312 808.393 49.16 808.089 47.704H810.249C810.505 48.584 810.985 49.272 811.689 49.768C812.409 50.28 813.329 50.536 814.449 50.536C815.633 50.536 816.609 50.152 817.377 49.384C818.161 48.632 818.553 47.576 818.553 46.216V42.64C818.201 43.712 817.577 44.568 816.681 45.208C815.801 45.848 814.721 46.168 813.441 46.168C812.273 46.168 811.233 45.896 810.321 45.352C809.409 44.808 808.689 44.032 808.161 43.024C807.649 42 807.393 40.8 807.393 39.424C807.393 38.048 807.649 36.848 808.161 35.824C808.689 34.8 809.409 34.016 810.321 33.472C811.233 32.928 812.273 32.656 813.441 32.656ZM814.065 34.6C812.721 34.6 811.641 35.032 810.825 35.896C810.025 36.744 809.625 37.92 809.625 39.424C809.625 40.928 810.025 42.112 810.825 42.976C811.641 43.824 812.721 44.248 814.065 44.248C814.929 44.248 815.697 44.048 816.369 43.648C817.057 43.248 817.593 42.688 817.977 41.968C818.361 41.232 818.553 40.384 818.553 39.424C818.553 38.464 818.361 37.616 817.977 36.88C817.593 36.144 817.057 35.584 816.369 35.2C815.697 34.8 814.929 34.6 814.065 34.6Z" fill="#021718"/>
<path d="M930.584 32.656C932.264 32.656 933.656 33.104 934.76 34C935.864 34.896 936.544 36.096 936.8 37.6H934.496C934.336 36.656 933.896 35.92 933.176 35.392C932.472 34.848 931.592 34.576 930.536 34.576C929.768 34.576 929.064 34.752 928.424 35.104C927.8 35.456 927.296 36 926.912 36.736C926.528 37.456 926.336 38.352 926.336 39.424C926.336 40.496 926.528 41.4 926.912 42.136C927.296 42.856 927.8 43.392 928.424 43.744C929.064 44.096 929.768 44.272 930.536 44.272C931.592 44.272 932.472 44 933.176 43.456C933.896 42.912 934.336 42.168 934.496 41.224H936.8C936.544 42.744 935.864 43.952 934.76 44.848C933.656 45.728 932.264 46.168 930.584 46.168C929.32 46.168 928.2 45.896 927.224 45.352C926.248 44.808 925.48 44.032 924.92 43.024C924.376 42 924.104 40.8 924.104 39.424C924.104 38.048 924.376 36.848 924.92 35.824C925.48 34.8 926.248 34.016 927.224 33.472C928.2 32.928 929.32 32.656 930.584 32.656ZM945.634 32.656C946.898 32.656 948.026 32.928 949.018 33.472C950.026 34.016 950.81 34.8 951.37 35.824C951.946 36.848 952.234 38.048 952.234 39.424C952.234 40.8 951.946 42 951.37 43.024C950.81 44.032 950.026 44.808 949.018 45.352C948.026 45.896 946.898 46.168 945.634 46.168C944.37 46.168 943.234 45.896 942.226 45.352C941.234 44.808 940.45 44.032 939.874 43.024C939.298 42 939.01 40.8 939.01 39.424C939.01 38.048 939.298 36.848 939.874 35.824C940.45 34.8 941.234 34.016 942.226 33.472C943.234 32.928 944.37 32.656 945.634 32.656ZM945.634 34.576C944.85 34.576 944.122 34.752 943.45 35.104C942.794 35.456 942.258 36 941.842 36.736C941.442 37.456 941.242 38.352 941.242 39.424C941.242 40.48 941.442 41.376 941.842 42.112C942.258 42.832 942.794 43.368 943.45 43.72C944.122 44.072 944.85 44.248 945.634 44.248C946.418 44.248 947.138 44.072 947.794 43.72C948.466 43.368 949.002 42.832 949.402 42.112C949.818 41.376 950.026 40.48 950.026 39.424C950.026 38.352 949.818 37.456 949.402 36.736C949.002 36 948.466 35.456 947.794 35.104C947.138 34.752 946.418 34.576 945.634 34.576ZM962.016 32.608C963.552 32.608 964.792 33.104 965.736 34.096C966.68 35.072 967.152 36.488 967.152 38.344V46H964.968V38.536C964.968 37.224 964.632 36.216 963.96 35.512C963.288 34.808 962.376 34.456 961.224 34.456C960.024 34.456 959.064 34.848 958.344 35.632C957.624 36.4 957.264 37.528 957.264 39.016V46H955.08V32.824H957.264V35.944C957.6 34.872 958.192 34.048 959.04 33.472C959.904 32.896 960.896 32.608 962.016 32.608ZM976.79 44.08V46H975.158C973.814 46 972.806 45.68 972.134 45.04C971.478 44.4 971.15 43.328 971.15 41.824V34.72H969.182V32.824H971.15V29.536H973.358V32.824H976.766V34.72H973.358V41.872C973.358 42.72 973.51 43.304 973.814 43.624C974.134 43.928 974.678 44.08 975.446 44.08H976.79ZM984.855 32.656C986.135 32.656 987.215 32.976 988.095 33.616C988.991 34.256 989.615 35.112 989.967 36.184V32.824H992.151V46H989.967V42.64C989.615 43.712 988.991 44.568 988.095 45.208C987.215 45.848 986.135 46.168 984.855 46.168C983.687 46.168 982.647 45.896 981.735 45.352C980.823 44.808 980.103 44.032 979.575 43.024C979.063 42 978.807 40.8 978.807 39.424C978.807 38.048 979.063 36.848 979.575 35.824C980.103 34.8 980.823 34.016 981.735 33.472C982.647 32.928 983.687 32.656 984.855 32.656ZM985.479 34.6C984.135 34.6 983.055 35.032 982.239 35.896C981.439 36.744 981.039 37.92 981.039 39.424C981.039 40.928 981.439 42.112 982.239 42.976C983.055 43.824 984.135 44.248 985.479 44.248C986.343 44.248 987.111 44.048 987.783 43.648C988.471 43.248 989.007 42.688 989.391 41.968C989.775 41.232 989.967 40.384 989.967 39.424C989.967 38.464 989.775 37.616 989.391 36.88C989.007 36.144 988.471 35.584 987.783 35.2C987.111 34.8 986.343 34.6 985.479 34.6ZM1001.46 32.656C1003.14 32.656 1004.53 33.104 1005.64 34C1006.74 34.896 1007.42 36.096 1007.68 37.6H1005.37C1005.21 36.656 1004.77 35.92 1004.05 35.392C1003.35 34.848 1002.47 34.576 1001.41 34.576C1000.64 34.576 999.939 34.752 999.299 35.104C998.675 35.456 998.171 36 997.787 36.736C997.403 37.456 997.211 38.352 997.211 39.424C997.211 40.496 997.403 41.4 997.787 42.136C998.171 42.856 998.675 43.392 999.299 43.744C999.939 44.096 1000.64 44.272 1001.41 44.272C1002.47 44.272 1003.35 44 1004.05 43.456C1004.77 42.912 1005.21 42.168 1005.37 41.224H1007.68C1007.42 42.744 1006.74 43.952 1005.64 44.848C1004.53 45.728 1003.14 46.168 1001.46 46.168C1000.2 46.168 999.075 45.896 998.099 45.352C997.123 44.808 996.355 44.032 995.795 43.024C995.251 42 994.979 40.8 994.979 39.424C994.979 38.048 995.251 36.848 995.795 35.824C996.355 34.8 997.123 34.016 998.099 33.472C999.075 32.928 1000.2 32.656 1001.46 32.656ZM1016.82 44.08V46H1015.19C1013.85 46 1012.84 45.68 1012.17 45.04C1011.51 44.4 1011.18 43.328 1011.18 41.824V34.72H1009.21V32.824H1011.18V29.536H1013.39V32.824H1016.8V34.72H1013.39V41.872C1013.39 42.72 1013.54 43.304 1013.85 43.624C1014.17 43.928 1014.71 44.08 1015.48 44.08H1016.82Z" fill="#021718"/>
<path d="M1125.15 32.656C1126.43 32.656 1127.51 32.976 1128.39 33.616C1129.29 34.256 1129.91 35.112 1130.26 36.184V32.824H1132.45V46H1130.26V42.64C1129.91 43.712 1129.29 44.568 1128.39 45.208C1127.51 45.848 1126.43 46.168 1125.15 46.168C1123.98 46.168 1122.94 45.896 1122.03 45.352C1121.12 44.808 1120.4 44.032 1119.87 43.024C1119.36 42 1119.1 40.8 1119.1 39.424C1119.1 38.048 1119.36 36.848 1119.87 35.824C1120.4 34.8 1121.12 34.016 1122.03 33.472C1122.94 32.928 1123.98 32.656 1125.15 32.656ZM1125.78 34.6C1124.43 34.6 1123.35 35.032 1122.54 35.896C1121.74 36.744 1121.34 37.92 1121.34 39.424C1121.34 40.928 1121.74 42.112 1122.54 42.976C1123.35 43.824 1124.43 44.248 1125.78 44.248C1126.64 44.248 1127.41 44.048 1128.08 43.648C1128.77 43.248 1129.3 42.688 1129.69 41.968C1130.07 41.232 1130.26 40.384 1130.26 39.424C1130.26 38.464 1130.07 37.616 1129.69 36.88C1129.3 36.144 1128.77 35.584 1128.08 35.2C1127.41 34.8 1126.64 34.6 1125.78 34.6ZM1143.2 32.656C1144.36 32.656 1145.4 32.928 1146.32 33.472C1147.23 34.016 1147.94 34.8 1148.45 35.824C1148.98 36.848 1149.24 38.048 1149.24 39.424C1149.24 40.8 1148.98 42 1148.45 43.024C1147.94 44.032 1147.23 44.808 1146.32 45.352C1145.4 45.896 1144.36 46.168 1143.2 46.168C1141.92 46.168 1140.83 45.848 1139.93 45.208C1139.05 44.552 1138.44 43.696 1138.11 42.64V46H1135.92V28.24H1138.11V36.184C1138.44 35.128 1139.05 34.28 1139.93 33.64C1140.83 32.984 1141.92 32.656 1143.2 32.656ZM1142.57 34.6C1141.72 34.6 1140.96 34.8 1140.27 35.2C1139.58 35.584 1139.04 36.144 1138.66 36.88C1138.28 37.616 1138.08 38.464 1138.08 39.424C1138.08 40.384 1138.28 41.232 1138.66 41.968C1139.04 42.688 1139.58 43.248 1140.27 43.648C1140.96 44.048 1141.72 44.248 1142.57 44.248C1143.93 44.248 1145.01 43.824 1145.81 42.976C1146.63 42.112 1147.04 40.928 1147.04 39.424C1147.04 37.92 1146.63 36.744 1145.81 35.896C1145.01 35.032 1143.93 34.6 1142.57 34.6ZM1158.07 32.656C1159.34 32.656 1160.46 32.928 1161.46 33.472C1162.46 34.016 1163.25 34.8 1163.81 35.824C1164.38 36.848 1164.67 38.048 1164.67 39.424C1164.67 40.8 1164.38 42 1163.81 43.024C1163.25 44.032 1162.46 44.808 1161.46 45.352C1160.46 45.896 1159.34 46.168 1158.07 46.168C1156.81 46.168 1155.67 45.896 1154.66 45.352C1153.67 44.808 1152.89 44.032 1152.31 43.024C1151.74 42 1151.45 40.8 1151.45 39.424C1151.45 38.048 1151.74 36.848 1152.31 35.824C1152.89 34.8 1153.67 34.016 1154.66 33.472C1155.67 32.928 1156.81 32.656 1158.07 32.656ZM1158.07 34.576C1157.29 34.576 1156.56 34.752 1155.89 35.104C1155.23 35.456 1154.7 36 1154.28 36.736C1153.88 37.456 1153.68 38.352 1153.68 39.424C1153.68 40.48 1153.88 41.376 1154.28 42.112C1154.7 42.832 1155.23 43.368 1155.89 43.72C1156.56 44.072 1157.29 44.248 1158.07 44.248C1158.86 44.248 1159.58 44.072 1160.23 43.72C1160.9 43.368 1161.44 42.832 1161.84 42.112C1162.26 41.376 1162.46 40.48 1162.46 39.424C1162.46 38.352 1162.26 37.456 1161.84 36.736C1161.44 36 1160.9 35.456 1160.23 35.104C1159.58 34.752 1158.86 34.576 1158.07 34.576ZM1179.23 32.824V46H1177.05V42.904C1176.71 43.976 1176.11 44.8 1175.25 45.376C1174.4 45.936 1173.41 46.216 1172.27 46.216C1170.75 46.216 1169.52 45.728 1168.57 44.752C1167.63 43.76 1167.16 42.344 1167.16 40.504V32.824H1169.34V40.288C1169.34 41.6 1169.68 42.616 1170.35 43.336C1171.02 44.04 1171.93 44.392 1173.09 44.392C1174.29 44.392 1175.25 44.008 1175.97 43.24C1176.69 42.456 1177.05 41.32 1177.05 39.832V32.824H1179.23ZM1189.02 44.08V46H1187.38C1186.04 46 1185.03 45.68 1184.36 45.04C1183.7 44.4 1183.38 43.328 1183.38 41.824V34.72H1181.41V32.824H1183.38V29.536H1185.58V32.824H1188.99V34.72H1185.58V41.872C1185.58 42.72 1185.74 43.304 1186.04 43.624C1186.36 43.928 1186.9 44.08 1187.67 44.08H1189.02Z" fill="#021718"/>
<defs>
<filter id="filter0_d_3_89" x="930" y="68" width="398" height="83" filterUnits="userSpaceOnUse" color-interpolation-filters="sRGB">
<feFlood flood-opacity="0" result="BackgroundImageFix"/>
<feColorMatrix in="SourceAlpha" type="matrix" values="0 0 0 0 0 0 0 0 0 0 0 0 0 0 0 0 0 0 127 0" result="hardAlpha"/>
<feOffset dy="4"/>
<feGaussianBlur stdDeviation="4"/>
<feColorMatrix type="matrix" values="0 0 0 0 0 0 0 0 0 0 0 0 0 0 0 0 0 0 0.15 0"/>
<feBlend mode="normal" in2="BackgroundImageFix" result="effect1_dropShadow_3_89"/>
<feBlend mode="normal" in="SourceGraphic" in2="effect1_dropShadow_3_89" result="shape"/>
</filter>
<filter id="filter1_d_3_89" x="-24" y="-16" width="1488" height="120" filterUnits="userSpaceOnUse" color-interpolation-filters="sRGB">
<feFlood flood-opacity="0" result="BackgroundImageFix"/>
<feColorMatrix in="SourceAlpha" type="matrix" values="0 0 0 0 0 0 0 0 0 0 0 0 0 0 0 0 0 0 127 0" result="hardAlpha"/>
<feOffset dy="8"/>
<feGaussianBlur stdDeviation="12"/>
<feColorMatrix type="matrix" values="0 0 0 0 0 0 0 0 0 0 0 0 0 0 0 0 0 0 0.1 0"/>
<feBlend mode="normal" in2="BackgroundImageFix" result="effect1_dropShadow_3_89"/>
<feBlend mode="normal" in="SourceGraphic" in2="effect1_dropShadow_3_89" result="shape"/>
</filter>
<clipPath id="clip0_3_89">
<rect width="30" height="30" fill="white" transform="translate(1290 21)"/>
</clipPath>
</defs>
</svg>
