<svg width="144" height="19" viewBox="0 0 144 19" fill="none" xmlns="http://www.w3.org/2000/svg">
<path d="M7.00781 10.3945C5.07812 9.83984 3.67188 9.16016 2.78906 8.35547C1.91406 7.54297 1.47656 6.54297 1.47656 5.35547C1.47656 4.01172 2.01172 2.90234 3.08203 2.02734C4.16016 1.14453 5.55859 0.703125 7.27734 0.703125C8.44922 0.703125 9.49219 0.929688 10.4062 1.38281C11.3281 1.83594 12.0391 2.46094 12.5391 3.25781C13.0469 4.05469 13.3008 4.92578 13.3008 5.87109H11.0391C11.0391 4.83984 10.7109 4.03125 10.0547 3.44531C9.39844 2.85156 8.47266 2.55469 7.27734 2.55469C6.16797 2.55469 5.30078 2.80078 4.67578 3.29297C4.05859 3.77734 3.75 4.45312 3.75 5.32031C3.75 6.01562 4.04297 6.60547 4.62891 7.08984C5.22266 7.56641 6.22656 8.00391 7.64062 8.40234C9.0625 8.80078 10.1719 9.24219 10.9688 9.72656C11.7734 10.2031 12.3672 10.7617 12.75 11.4023C13.1406 12.043 13.3359 12.7969 13.3359 13.6641C13.3359 15.0469 12.7969 16.1562 11.7188 16.9922C10.6406 17.8203 9.19922 18.2344 7.39453 18.2344C6.22266 18.2344 5.12891 18.0117 4.11328 17.5664C3.09766 17.1133 2.3125 16.4961 1.75781 15.7148C1.21094 14.9336 0.9375 14.0469 0.9375 13.0547H3.19922C3.19922 14.0859 3.57812 14.9023 4.33594 15.5039C5.10156 16.0977 6.12109 16.3945 7.39453 16.3945C8.58203 16.3945 9.49219 16.1523 10.125 15.668C10.7578 15.1836 11.0742 14.5234 11.0742 13.6875C11.0742 12.8516 10.7812 12.207 10.1953 11.7539C9.60938 11.293 8.54688 10.8398 7.00781 10.3945ZM21.1523 18.2344C19.4336 18.2344 18.0352 17.6719 16.957 16.5469C15.8789 15.4141 15.3398 13.9023 15.3398 12.0117V11.6133C15.3398 10.3555 15.5781 9.23438 16.0547 8.25C16.5391 7.25781 17.2109 6.48438 18.0703 5.92969C18.9375 5.36719 19.875 5.08594 20.8828 5.08594C22.5312 5.08594 23.8125 5.62891 24.7266 6.71484C25.6406 7.80078 26.0977 9.35547 26.0977 11.3789V12.2812H17.5078C17.5391 13.5312 17.9023 14.543 18.5977 15.3164C19.3008 16.082 20.1914 16.4648 21.2695 16.4648C22.0352 16.4648 22.6836 16.3086 23.2148 15.9961C23.7461 15.6836 24.2109 15.2695 24.6094 14.7539L25.9336 15.7852C24.8711 17.418 23.2773 18.2344 21.1523 18.2344ZM20.8828 6.86719C20.0078 6.86719 19.2734 7.1875 18.6797 7.82812C18.0859 8.46094 17.7188 9.35156 17.5781 10.5H23.9297V10.3359C23.8672 9.23438 23.5703 8.38281 23.0391 7.78125C22.5078 7.17188 21.7891 6.86719 20.8828 6.86719ZM36.4453 18C36.3203 17.75 36.2188 17.3047 36.1406 16.6641C35.1328 17.7109 33.9297 18.2344 32.5312 18.2344C31.2812 18.2344 30.2539 17.8828 29.4492 17.1797C28.6523 16.4688 28.2539 15.5703 28.2539 14.4844C28.2539 13.1641 28.7539 12.1406 29.7539 11.4141C30.7617 10.6797 32.1758 10.3125 33.9961 10.3125H36.1055V9.31641C36.1055 8.55859 35.8789 7.95703 35.4258 7.51172C34.9727 7.05859 34.3047 6.83203 33.4219 6.83203C32.6484 6.83203 32 7.02734 31.4766 7.41797C30.9531 7.80859 30.6914 8.28125 30.6914 8.83594H28.5117C28.5117 8.20312 28.7344 7.59375 29.1797 7.00781C29.6328 6.41406 30.2422 5.94531 31.0078 5.60156C31.7812 5.25781 32.6289 5.08594 33.5508 5.08594C35.0117 5.08594 36.1562 5.45312 36.9844 6.1875C37.8125 6.91406 38.2422 7.91797 38.2734 9.19922V15.0352C38.2734 16.1992 38.4219 17.125 38.7188 17.8125V18H36.4453ZM32.8477 16.3477C33.5273 16.3477 34.1719 16.1719 34.7812 15.8203C35.3906 15.4688 35.832 15.0117 36.1055 14.4492V11.8477H34.4062C31.75 11.8477 30.4219 12.625 30.4219 14.1797C30.4219 14.8594 30.6484 15.3906 31.1016 15.7734C31.5547 16.1562 32.1367 16.3477 32.8477 16.3477ZM47.8008 7.26562C47.4727 7.21094 47.1172 7.18359 46.7344 7.18359C45.3125 7.18359 44.3477 7.78906 43.8398 9V18H41.6719V5.32031H43.7812L43.8164 6.78516C44.5273 5.65234 45.5352 5.08594 46.8398 5.08594C47.2617 5.08594 47.582 5.14062 47.8008 5.25V7.26562ZM54.6562 16.4648C55.4297 16.4648 56.1055 16.2305 56.6836 15.7617C57.2617 15.293 57.582 14.707 57.6445 14.0039H59.6953C59.6562 14.7305 59.4062 15.4219 58.9453 16.0781C58.4844 16.7344 57.8672 17.2578 57.0938 17.6484C56.3281 18.0391 55.5156 18.2344 54.6562 18.2344C52.9297 18.2344 51.5547 17.6602 50.5312 16.5117C49.5156 15.3555 49.0078 13.7773 49.0078 11.7773V11.4141C49.0078 10.1797 49.2344 9.08203 49.6875 8.12109C50.1406 7.16016 50.7891 6.41406 51.6328 5.88281C52.4844 5.35156 53.4883 5.08594 54.6445 5.08594C56.0664 5.08594 57.2461 5.51172 58.1836 6.36328C59.1289 7.21484 59.6328 8.32031 59.6953 9.67969H57.6445C57.582 8.85938 57.2695 8.1875 56.707 7.66406C56.1523 7.13281 55.4648 6.86719 54.6445 6.86719C53.543 6.86719 52.6875 7.26562 52.0781 8.0625C51.4766 8.85156 51.1758 9.99609 51.1758 11.4961V11.9062C51.1758 13.3672 51.4766 14.4922 52.0781 15.2812C52.6797 16.0703 53.5391 16.4648 54.6562 16.4648ZM64.3008 6.85547C65.2617 5.67578 66.5117 5.08594 68.0508 5.08594C70.7305 5.08594 72.082 6.59766 72.1055 9.62109V18H69.9375V9.60938C69.9297 8.69531 69.7188 8.01953 69.3047 7.58203C68.8984 7.14453 68.2617 6.92578 67.3945 6.92578C66.6914 6.92578 66.0742 7.11328 65.543 7.48828C65.0117 7.86328 64.5977 8.35547 64.3008 8.96484V18H62.1328V0H64.3008V6.85547ZM83.4727 6.85547C84.4336 5.67578 85.6836 5.08594 87.2227 5.08594C89.9023 5.08594 91.2539 6.59766 91.2773 9.62109V18H89.1094V9.60938C89.1016 8.69531 88.8906 8.01953 88.4766 7.58203C88.0703 7.14453 87.4336 6.92578 86.5664 6.92578C85.8633 6.92578 85.2461 7.11328 84.7148 7.48828C84.1836 7.86328 83.7695 8.35547 83.4727 8.96484V18H81.3047V0H83.4727V6.85547ZM99.7852 18.2344C98.0664 18.2344 96.668 17.6719 95.5898 16.5469C94.5117 15.4141 93.9727 13.9023 93.9727 12.0117V11.6133C93.9727 10.3555 94.2109 9.23438 94.6875 8.25C95.1719 7.25781 95.8438 6.48438 96.7031 5.92969C97.5703 5.36719 98.5078 5.08594 99.5156 5.08594C101.164 5.08594 102.445 5.62891 103.359 6.71484C104.273 7.80078 104.73 9.35547 104.73 11.3789V12.2812H96.1406C96.1719 13.5312 96.5352 14.543 97.2305 15.3164C97.9336 16.082 98.8242 16.4648 99.9023 16.4648C100.668 16.4648 101.316 16.3086 101.848 15.9961C102.379 15.6836 102.844 15.2695 103.242 14.7539L104.566 15.7852C103.504 17.418 101.91 18.2344 99.7852 18.2344ZM99.5156 6.86719C98.6406 6.86719 97.9062 7.1875 97.3125 7.82812C96.7188 8.46094 96.3516 9.35156 96.2109 10.5H102.562V10.3359C102.5 9.23438 102.203 8.38281 101.672 7.78125C101.141 7.17188 100.422 6.86719 99.5156 6.86719ZM113.379 7.26562C113.051 7.21094 112.695 7.18359 112.312 7.18359C110.891 7.18359 109.926 7.78906 109.418 9V18H107.25V5.32031H109.359L109.395 6.78516C110.105 5.65234 111.113 5.08594 112.418 5.08594C112.84 5.08594 113.16 5.14062 113.379 5.25V7.26562ZM120.41 18.2344C118.691 18.2344 117.293 17.6719 116.215 16.5469C115.137 15.4141 114.598 13.9023 114.598 12.0117V11.6133C114.598 10.3555 114.836 9.23438 115.312 8.25C115.797 7.25781 116.469 6.48438 117.328 5.92969C118.195 5.36719 119.133 5.08594 120.141 5.08594C121.789 5.08594 123.07 5.62891 123.984 6.71484C124.898 7.80078 125.355 9.35547 125.355 11.3789V12.2812H116.766C116.797 13.5312 117.16 14.543 117.855 15.3164C118.559 16.082 119.449 16.4648 120.527 16.4648C121.293 16.4648 121.941 16.3086 122.473 15.9961C123.004 15.6836 123.469 15.2695 123.867 14.7539L125.191 15.7852C124.129 17.418 122.535 18.2344 120.41 18.2344ZM120.141 6.86719C119.266 6.86719 118.531 7.1875 117.938 7.82812C117.344 8.46094 116.977 9.35156 116.836 10.5H123.188V10.3359C123.125 9.23438 122.828 8.38281 122.297 7.78125C121.766 7.17188 121.047 6.86719 120.141 6.86719ZM127.922 16.8633C127.922 16.4883 128.031 16.1758 128.25 15.9258C128.477 15.6758 128.812 15.5508 129.258 15.5508C129.703 15.5508 130.039 15.6758 130.266 15.9258C130.5 16.1758 130.617 16.4883 130.617 16.8633C130.617 17.2227 130.5 17.5234 130.266 17.7656C130.039 18.0078 129.703 18.1289 129.258 18.1289C128.812 18.1289 128.477 18.0078 128.25 17.7656C128.031 17.5234 127.922 17.2227 127.922 16.8633ZM134.25 16.8633C134.25 16.4883 134.359 16.1758 134.578 15.9258C134.805 15.6758 135.141 15.5508 135.586 15.5508C136.031 15.5508 136.367 15.6758 136.594 15.9258C136.828 16.1758 136.945 16.4883 136.945 16.8633C136.945 17.2227 136.828 17.5234 136.594 17.7656C136.367 18.0078 136.031 18.1289 135.586 18.1289C135.141 18.1289 134.805 18.0078 134.578 17.7656C134.359 17.5234 134.25 17.2227 134.25 16.8633ZM140.578 16.8633C140.578 16.4883 140.688 16.1758 140.906 15.9258C141.133 15.6758 141.469 15.5508 141.914 15.5508C142.359 15.5508 142.695 15.6758 142.922 15.9258C143.156 16.1758 143.273 16.4883 143.273 16.8633C143.273 17.2227 143.156 17.5234 142.922 17.7656C142.695 18.0078 142.359 18.1289 141.914 18.1289C141.469 18.1289 141.133 18.0078 140.906 17.7656C140.688 17.5234 140.578 17.2227 140.578 16.8633Z" fill="black" fill-opacity="0.5"/>
</svg>
