<svg width="337" height="66" viewBox="0 0 337 66" fill="none" xmlns="http://www.w3.org/2000/svg">
<path d="M6.46875 13.5172L9.85547 1.6109H11.4961L10.5469 6.23981L6.90234 18.6734H5.27344L6.46875 13.5172ZM2.96484 1.6109L5.66016 13.2828L6.46875 18.6734H4.85156L0.714844 1.6109H2.96484ZM15.8789 13.2711L18.5156 1.6109H20.7773L16.6523 18.6734H15.0352L15.8789 13.2711ZM11.7422 1.6109L15.0352 13.5172L16.2305 18.6734H14.6016L11.0859 6.23981L10.125 1.6109H11.7422ZM27.8438 18.9078C26.9609 18.9078 26.1602 18.7593 25.4414 18.4625C24.7305 18.1578 24.1172 17.732 23.6016 17.1851C23.0938 16.6382 22.7031 15.9898 22.4297 15.2398C22.1562 14.4898 22.0195 13.6695 22.0195 12.7789V12.2867C22.0195 11.2554 22.1719 10.3375 22.4766 9.53278C22.7812 8.72028 23.1953 8.03278 23.7188 7.47028C24.2422 6.90778 24.8359 6.48199 25.5 6.19293C26.1641 5.90387 26.8516 5.75934 27.5625 5.75934C28.4688 5.75934 29.25 5.91559 29.9062 6.22809C30.5703 6.54059 31.1133 6.97809 31.5352 7.54059C31.957 8.09528 32.2695 8.75153 32.4727 9.50934C32.6758 10.2593 32.7773 11.0797 32.7773 11.9703V12.9429H23.3086V11.1734H30.6094V11.0093C30.5781 10.4468 30.4609 9.89996 30.2578 9.36871C30.0625 8.83746 29.75 8.39996 29.3203 8.05621C28.8906 7.71246 28.3047 7.54059 27.5625 7.54059C27.0703 7.54059 26.6172 7.64606 26.2031 7.85699C25.7891 8.06012 25.4336 8.36481 25.1367 8.77106C24.8398 9.17731 24.6094 9.6734 24.4453 10.2593C24.2812 10.8453 24.1992 11.5211 24.1992 12.2867V12.7789C24.1992 13.3804 24.2812 13.9468 24.4453 14.4781C24.6172 15.0015 24.8633 15.4625 25.1836 15.8609C25.5117 16.2593 25.9062 16.5718 26.3672 16.7984C26.8359 17.025 27.3672 17.1382 27.9609 17.1382C28.7266 17.1382 29.375 16.982 29.9062 16.6695C30.4375 16.357 30.9023 15.939 31.3008 15.4156L32.6133 16.4586C32.3398 16.8726 31.9922 17.2672 31.5703 17.6422C31.1484 18.0172 30.6289 18.3218 30.0117 18.5562C29.4023 18.7906 28.6797 18.9078 27.8438 18.9078ZM37.6641 0.673401V18.6734H35.4844V0.673401H37.6641ZM46.2188 17.1265C46.7344 17.1265 47.2109 17.0211 47.6484 16.8101C48.0859 16.5992 48.4453 16.3101 48.7266 15.9429C49.0078 15.5679 49.168 15.1422 49.207 14.6656H51.2695C51.2305 15.4156 50.9766 16.1148 50.5078 16.7632C50.0469 17.4039 49.4414 17.9234 48.6914 18.3218C47.9414 18.7125 47.1172 18.9078 46.2188 18.9078C45.2656 18.9078 44.4336 18.7398 43.7227 18.4039C43.0195 18.0679 42.4336 17.607 41.9648 17.0211C41.5039 16.4351 41.1562 15.7632 40.9219 15.0054C40.6953 14.2398 40.582 13.4312 40.582 12.5797V12.0875C40.582 11.2359 40.6953 10.4312 40.9219 9.6734C41.1562 8.90778 41.5039 8.23199 41.9648 7.64606C42.4336 7.06012 43.0195 6.59918 43.7227 6.26324C44.4336 5.92731 45.2656 5.75934 46.2188 5.75934C47.2109 5.75934 48.0781 5.96246 48.8203 6.36871C49.5625 6.76715 50.1445 7.31403 50.5664 8.00934C50.9961 8.69684 51.2305 9.47809 51.2695 10.3531H49.207C49.168 9.82965 49.0195 9.35699 48.7617 8.93512C48.5117 8.51324 48.168 8.17731 47.7305 7.92731C47.3008 7.66949 46.7969 7.54059 46.2188 7.54059C45.5547 7.54059 44.9961 7.6734 44.543 7.93903C44.0977 8.19684 43.7422 8.5484 43.4766 8.99371C43.2188 9.43121 43.0312 9.91949 42.9141 10.4586C42.8047 10.9898 42.75 11.5328 42.75 12.0875V12.5797C42.75 13.1343 42.8047 13.6812 42.9141 14.2203C43.0234 14.7593 43.207 15.2476 43.4648 15.6851C43.7305 16.1226 44.0859 16.4742 44.5312 16.7398C44.9844 16.9976 45.5469 17.1265 46.2188 17.1265ZM53.1328 12.4742V12.2047C53.1328 11.2906 53.2656 10.4429 53.5312 9.66168C53.7969 8.87262 54.1797 8.18903 54.6797 7.6109C55.1797 7.02496 55.7852 6.57184 56.4961 6.25153C57.207 5.9234 58.0039 5.75934 58.8867 5.75934C59.7773 5.75934 60.5781 5.9234 61.2891 6.25153C62.0078 6.57184 62.6172 7.02496 63.1172 7.6109C63.625 8.18903 64.0117 8.87262 64.2773 9.66168C64.543 10.4429 64.6758 11.2906 64.6758 12.2047V12.4742C64.6758 13.3882 64.543 14.2359 64.2773 15.0172C64.0117 15.7984 63.625 16.482 63.1172 17.0679C62.6172 17.6461 62.0117 18.0992 61.3008 18.4273C60.5977 18.7476 59.8008 18.9078 58.9102 18.9078C58.0195 18.9078 57.2188 18.7476 56.5078 18.4273C55.7969 18.0992 55.1875 17.6461 54.6797 17.0679C54.1797 16.482 53.7969 15.7984 53.5312 15.0172C53.2656 14.2359 53.1328 13.3882 53.1328 12.4742ZM55.3008 12.2047V12.4742C55.3008 13.107 55.375 13.7047 55.5234 14.2672C55.6719 14.8218 55.8945 15.314 56.1914 15.7437C56.4961 16.1734 56.875 16.5132 57.3281 16.7632C57.7812 17.0054 58.3086 17.1265 58.9102 17.1265C59.5039 17.1265 60.0234 17.0054 60.4688 16.7632C60.9219 16.5132 61.2969 16.1734 61.5938 15.7437C61.8906 15.314 62.1133 14.8218 62.2617 14.2672C62.418 13.7047 62.4961 13.107 62.4961 12.4742V12.2047C62.4961 11.5797 62.418 10.9898 62.2617 10.4351C62.1133 9.87262 61.8867 9.37653 61.582 8.94684C61.2852 8.50934 60.9102 8.16559 60.457 7.91559C60.0117 7.66559 59.4883 7.54059 58.8867 7.54059C58.293 7.54059 57.7695 7.66559 57.3164 7.91559C56.8711 8.16559 56.4961 8.50934 56.1914 8.94684C55.8945 9.37653 55.6719 9.87262 55.5234 10.4351C55.375 10.9898 55.3008 11.5797 55.3008 12.2047ZM69.5508 8.51324V18.6734H67.3711V5.99371H69.4336L69.5508 8.51324ZM69.1055 11.8531L68.0977 11.8179C68.1055 10.9507 68.2188 10.15 68.4375 9.41559C68.6562 8.6734 68.9805 8.02887 69.4102 7.48199C69.8398 6.93512 70.375 6.51324 71.0156 6.21637C71.6562 5.91168 72.3984 5.75934 73.2422 5.75934C73.8359 5.75934 74.3828 5.84528 74.8828 6.01715C75.3828 6.18121 75.8164 6.44293 76.1836 6.80231C76.5508 7.16168 76.8359 7.62262 77.0391 8.18512C77.2422 8.74762 77.3438 9.42731 77.3438 10.2242V18.6734H75.1758V10.3297C75.1758 9.66559 75.0625 9.13434 74.8359 8.7359C74.6172 8.33746 74.3047 8.0484 73.8984 7.86871C73.4922 7.68121 73.0156 7.58746 72.4688 7.58746C71.8281 7.58746 71.293 7.70074 70.8633 7.92731C70.4336 8.15387 70.0898 8.46637 69.832 8.86481C69.5742 9.26324 69.3867 9.72028 69.2695 10.2359C69.1602 10.7437 69.1055 11.2828 69.1055 11.8531ZM77.3203 10.6578L75.8672 11.1031C75.875 10.4078 75.9883 9.73981 76.207 9.09918C76.4336 8.45856 76.7578 7.88824 77.1797 7.38824C77.6094 6.88824 78.1367 6.49371 78.7617 6.20465C79.3867 5.90778 80.1016 5.75934 80.9062 5.75934C81.5859 5.75934 82.1875 5.84918 82.7109 6.02887C83.2422 6.20856 83.6875 6.4859 84.0469 6.8609C84.4141 7.22809 84.6914 7.70074 84.8789 8.27887C85.0664 8.85699 85.1602 9.54449 85.1602 10.3414V18.6734H82.9805V10.3179C82.9805 9.60699 82.8672 9.05621 82.6406 8.66559C82.4219 8.26715 82.1094 7.98981 81.7031 7.83356C81.3047 7.66949 80.8281 7.58746 80.2734 7.58746C79.7969 7.58746 79.375 7.66949 79.0078 7.83356C78.6406 7.99762 78.332 8.22418 78.082 8.51324C77.832 8.79449 77.6406 9.11871 77.5078 9.4859C77.3828 9.85309 77.3203 10.2437 77.3203 10.6578ZM93.7031 18.9078C92.8203 18.9078 92.0195 18.7593 91.3008 18.4625C90.5898 18.1578 89.9766 17.732 89.4609 17.1851C88.9531 16.6382 88.5625 15.9898 88.2891 15.2398C88.0156 14.4898 87.8789 13.6695 87.8789 12.7789V12.2867C87.8789 11.2554 88.0312 10.3375 88.3359 9.53278C88.6406 8.72028 89.0547 8.03278 89.5781 7.47028C90.1016 6.90778 90.6953 6.48199 91.3594 6.19293C92.0234 5.90387 92.7109 5.75934 93.4219 5.75934C94.3281 5.75934 95.1094 5.91559 95.7656 6.22809C96.4297 6.54059 96.9727 6.97809 97.3945 7.54059C97.8164 8.09528 98.1289 8.75153 98.332 9.50934C98.5352 10.2593 98.6367 11.0797 98.6367 11.9703V12.9429H89.168V11.1734H96.4688V11.0093C96.4375 10.4468 96.3203 9.89996 96.1172 9.36871C95.9219 8.83746 95.6094 8.39996 95.1797 8.05621C94.75 7.71246 94.1641 7.54059 93.4219 7.54059C92.9297 7.54059 92.4766 7.64606 92.0625 7.85699C91.6484 8.06012 91.293 8.36481 90.9961 8.77106C90.6992 9.17731 90.4688 9.6734 90.3047 10.2593C90.1406 10.8453 90.0586 11.5211 90.0586 12.2867V12.7789C90.0586 13.3804 90.1406 13.9468 90.3047 14.4781C90.4766 15.0015 90.7227 15.4625 91.043 15.8609C91.3711 16.2593 91.7656 16.5718 92.2266 16.7984C92.6953 17.025 93.2266 17.1382 93.8203 17.1382C94.5859 17.1382 95.2344 16.982 95.7656 16.6695C96.2969 16.357 96.7617 15.939 97.1602 15.4156L98.4727 16.4586C98.1992 16.8726 97.8516 17.2672 97.4297 17.6422C97.0078 18.0172 96.4883 18.3218 95.8711 18.5562C95.2617 18.7906 94.5391 18.9078 93.7031 18.9078ZM112.43 5.99371V7.65778H105.574V5.99371H112.43ZM107.895 2.91168H110.062V15.5328C110.062 15.9625 110.129 16.2867 110.262 16.5054C110.395 16.7242 110.566 16.8687 110.777 16.939C110.988 17.0093 111.215 17.0445 111.457 17.0445C111.637 17.0445 111.824 17.0289 112.02 16.9976C112.223 16.9586 112.375 16.9273 112.477 16.9039L112.488 18.6734C112.316 18.7281 112.09 18.7789 111.809 18.8257C111.535 18.8804 111.203 18.9078 110.812 18.9078C110.281 18.9078 109.793 18.8023 109.348 18.5914C108.902 18.3804 108.547 18.0289 108.281 17.5367C108.023 17.0367 107.895 16.3648 107.895 15.5211V2.91168ZM114.164 12.4742V12.2047C114.164 11.2906 114.297 10.4429 114.562 9.66168C114.828 8.87262 115.211 8.18903 115.711 7.6109C116.211 7.02496 116.816 6.57184 117.527 6.25153C118.238 5.9234 119.035 5.75934 119.918 5.75934C120.809 5.75934 121.609 5.9234 122.32 6.25153C123.039 6.57184 123.648 7.02496 124.148 7.6109C124.656 8.18903 125.043 8.87262 125.309 9.66168C125.574 10.4429 125.707 11.2906 125.707 12.2047V12.4742C125.707 13.3882 125.574 14.2359 125.309 15.0172C125.043 15.7984 124.656 16.482 124.148 17.0679C123.648 17.6461 123.043 18.0992 122.332 18.4273C121.629 18.7476 120.832 18.9078 119.941 18.9078C119.051 18.9078 118.25 18.7476 117.539 18.4273C116.828 18.0992 116.219 17.6461 115.711 17.0679C115.211 16.482 114.828 15.7984 114.562 15.0172C114.297 14.2359 114.164 13.3882 114.164 12.4742ZM116.332 12.2047V12.4742C116.332 13.107 116.406 13.7047 116.555 14.2672C116.703 14.8218 116.926 15.314 117.223 15.7437C117.527 16.1734 117.906 16.5132 118.359 16.7632C118.812 17.0054 119.34 17.1265 119.941 17.1265C120.535 17.1265 121.055 17.0054 121.5 16.7632C121.953 16.5132 122.328 16.1734 122.625 15.7437C122.922 15.314 123.145 14.8218 123.293 14.2672C123.449 13.7047 123.527 13.107 123.527 12.4742V12.2047C123.527 11.5797 123.449 10.9898 123.293 10.4351C123.145 9.87262 122.918 9.37653 122.613 8.94684C122.316 8.50934 121.941 8.16559 121.488 7.91559C121.043 7.66559 120.52 7.54059 119.918 7.54059C119.324 7.54059 118.801 7.66559 118.348 7.91559C117.902 8.16559 117.527 8.50934 117.223 8.94684C116.926 9.37653 116.703 9.87262 116.555 10.4351C116.406 10.9898 116.332 11.5797 116.332 12.2047ZM136.535 8.51324V18.6734H134.355V5.99371H136.418L136.535 8.51324ZM136.09 11.8531L135.082 11.8179C135.09 10.9507 135.203 10.15 135.422 9.41559C135.641 8.6734 135.965 8.02887 136.395 7.48199C136.824 6.93512 137.359 6.51324 138 6.21637C138.641 5.91168 139.383 5.75934 140.227 5.75934C140.82 5.75934 141.367 5.84528 141.867 6.01715C142.367 6.18121 142.801 6.44293 143.168 6.80231C143.535 7.16168 143.82 7.62262 144.023 8.18512C144.227 8.74762 144.328 9.42731 144.328 10.2242V18.6734H142.16V10.3297C142.16 9.66559 142.047 9.13434 141.82 8.7359C141.602 8.33746 141.289 8.0484 140.883 7.86871C140.477 7.68121 140 7.58746 139.453 7.58746C138.812 7.58746 138.277 7.70074 137.848 7.92731C137.418 8.15387 137.074 8.46637 136.816 8.86481C136.559 9.26324 136.371 9.72028 136.254 10.2359C136.145 10.7437 136.09 11.2828 136.09 11.8531ZM144.305 10.6578L142.852 11.1031C142.859 10.4078 142.973 9.73981 143.191 9.09918C143.418 8.45856 143.742 7.88824 144.164 7.38824C144.594 6.88824 145.121 6.49371 145.746 6.20465C146.371 5.90778 147.086 5.75934 147.891 5.75934C148.57 5.75934 149.172 5.84918 149.695 6.02887C150.227 6.20856 150.672 6.4859 151.031 6.8609C151.398 7.22809 151.676 7.70074 151.863 8.27887C152.051 8.85699 152.145 9.54449 152.145 10.3414V18.6734H149.965V10.3179C149.965 9.60699 149.852 9.05621 149.625 8.66559C149.406 8.26715 149.094 7.98981 148.688 7.83356C148.289 7.66949 147.812 7.58746 147.258 7.58746C146.781 7.58746 146.359 7.66949 145.992 7.83356C145.625 7.99762 145.316 8.22418 145.066 8.51324C144.816 8.79449 144.625 9.11871 144.492 9.4859C144.367 9.85309 144.305 10.2437 144.305 10.6578ZM158.988 17.3609L162.516 5.99371H164.836L159.75 20.6304C159.633 20.9429 159.477 21.2789 159.281 21.6382C159.094 22.0054 158.852 22.3531 158.555 22.6812C158.258 23.0093 157.898 23.275 157.477 23.4781C157.062 23.689 156.566 23.7945 155.988 23.7945C155.816 23.7945 155.598 23.7711 155.332 23.7242C155.066 23.6773 154.879 23.6382 154.77 23.607L154.758 21.8492C154.82 21.857 154.918 21.8648 155.051 21.8726C155.191 21.8882 155.289 21.8961 155.344 21.8961C155.836 21.8961 156.254 21.8297 156.598 21.6968C156.941 21.5718 157.23 21.357 157.465 21.0523C157.707 20.7554 157.914 20.3453 158.086 19.8218L158.988 17.3609ZM156.398 5.99371L159.691 15.8375L160.254 18.1226L158.695 18.9195L154.031 5.99371H156.398ZM175.957 16.4234L179.215 5.99371H180.645L180.363 8.06793L177.047 18.6734H175.652L175.957 16.4234ZM173.766 5.99371L176.543 16.5406L176.742 18.6734H175.277L171.598 5.99371H173.766ZM183.762 16.4586L186.41 5.99371H188.566L184.887 18.6734H183.434L183.762 16.4586ZM180.961 5.99371L184.148 16.2476L184.512 18.6734H183.129L179.719 8.04449L179.438 5.99371H180.961ZM196.055 18.9078C195.172 18.9078 194.371 18.7593 193.652 18.4625C192.941 18.1578 192.328 17.732 191.812 17.1851C191.305 16.6382 190.914 15.9898 190.641 15.2398C190.367 14.4898 190.23 13.6695 190.23 12.7789V12.2867C190.23 11.2554 190.383 10.3375 190.688 9.53278C190.992 8.72028 191.406 8.03278 191.93 7.47028C192.453 6.90778 193.047 6.48199 193.711 6.19293C194.375 5.90387 195.062 5.75934 195.773 5.75934C196.68 5.75934 197.461 5.91559 198.117 6.22809C198.781 6.54059 199.324 6.97809 199.746 7.54059C200.168 8.09528 200.48 8.75153 200.684 9.50934C200.887 10.2593 200.988 11.0797 200.988 11.9703V12.9429H191.52V11.1734H198.82V11.0093C198.789 10.4468 198.672 9.89996 198.469 9.36871C198.273 8.83746 197.961 8.39996 197.531 8.05621C197.102 7.71246 196.516 7.54059 195.773 7.54059C195.281 7.54059 194.828 7.64606 194.414 7.85699C194 8.06012 193.645 8.36481 193.348 8.77106C193.051 9.17731 192.82 9.6734 192.656 10.2593C192.492 10.8453 192.41 11.5211 192.41 12.2867V12.7789C192.41 13.3804 192.492 13.9468 192.656 14.4781C192.828 15.0015 193.074 15.4625 193.395 15.8609C193.723 16.2593 194.117 16.5718 194.578 16.7984C195.047 17.025 195.578 17.1382 196.172 17.1382C196.938 17.1382 197.586 16.982 198.117 16.6695C198.648 16.357 199.113 15.939 199.512 15.4156L200.824 16.4586C200.551 16.8726 200.203 17.2672 199.781 17.6422C199.359 18.0172 198.84 18.3218 198.223 18.5562C197.613 18.7906 196.891 18.9078 196.055 18.9078ZM203.508 0.673401H205.688V16.2125L205.5 18.6734H203.508V0.673401ZM214.254 12.2281V12.4742C214.254 13.3961 214.145 14.2515 213.926 15.0406C213.707 15.8218 213.387 16.5015 212.965 17.0797C212.543 17.6578 212.027 18.107 211.418 18.4273C210.809 18.7476 210.109 18.9078 209.32 18.9078C208.516 18.9078 207.809 18.7711 207.199 18.4976C206.598 18.2164 206.09 17.814 205.676 17.2906C205.262 16.7672 204.93 16.1343 204.68 15.3922C204.438 14.65 204.27 13.814 204.176 12.8843V11.8062C204.27 10.8687 204.438 10.0289 204.68 9.28668C204.93 8.54449 205.262 7.91168 205.676 7.38824C206.09 6.85699 206.598 6.45465 207.199 6.18121C207.801 5.89996 208.5 5.75934 209.297 5.75934C210.094 5.75934 210.801 5.91559 211.418 6.22809C212.035 6.53278 212.551 6.97028 212.965 7.54059C213.387 8.1109 213.707 8.79449 213.926 9.59137C214.145 10.3804 214.254 11.2593 214.254 12.2281ZM212.074 12.4742V12.2281C212.074 11.5953 212.016 11.0015 211.898 10.4468C211.781 9.88434 211.594 9.39215 211.336 8.97028C211.078 8.54059 210.738 8.20465 210.316 7.96246C209.895 7.71246 209.375 7.58746 208.758 7.58746C208.211 7.58746 207.734 7.68121 207.328 7.86871C206.93 8.05621 206.59 8.31012 206.309 8.63043C206.027 8.94293 205.797 9.30231 205.617 9.70856C205.445 10.107 205.316 10.5211 205.23 10.9507V13.775C205.355 14.3218 205.559 14.8492 205.84 15.357C206.129 15.857 206.512 16.2672 206.988 16.5875C207.473 16.9078 208.07 17.0679 208.781 17.0679C209.367 17.0679 209.867 16.9507 210.281 16.7164C210.703 16.4742 211.043 16.1422 211.301 15.7203C211.566 15.2984 211.762 14.8101 211.887 14.2554C212.012 13.7007 212.074 13.107 212.074 12.4742ZM225.117 8.43121V23.5484H222.938V5.99371H224.93L225.117 8.43121ZM233.66 12.2281V12.4742C233.66 13.3961 233.551 14.2515 233.332 15.0406C233.113 15.8218 232.793 16.5015 232.371 17.0797C231.957 17.6578 231.445 18.107 230.836 18.4273C230.227 18.7476 229.527 18.9078 228.738 18.9078C227.934 18.9078 227.223 18.775 226.605 18.5093C225.988 18.2437 225.465 17.857 225.035 17.3492C224.605 16.8414 224.262 16.232 224.004 15.5211C223.754 14.8101 223.582 14.0093 223.488 13.1187V11.8062C223.582 10.8687 223.758 10.0289 224.016 9.28668C224.273 8.54449 224.613 7.91168 225.035 7.38824C225.465 6.85699 225.984 6.45465 226.594 6.18121C227.203 5.89996 227.906 5.75934 228.703 5.75934C229.5 5.75934 230.207 5.91559 230.824 6.22809C231.441 6.53278 231.961 6.97028 232.383 7.54059C232.805 8.1109 233.121 8.79449 233.332 9.59137C233.551 10.3804 233.66 11.2593 233.66 12.2281ZM231.48 12.4742V12.2281C231.48 11.5953 231.414 11.0015 231.281 10.4468C231.148 9.88434 230.941 9.39215 230.66 8.97028C230.387 8.54059 230.035 8.20465 229.605 7.96246C229.176 7.71246 228.664 7.58746 228.07 7.58746C227.523 7.58746 227.047 7.68121 226.641 7.86871C226.242 8.05621 225.902 8.31012 225.621 8.63043C225.34 8.94293 225.109 9.30231 224.93 9.70856C224.758 10.107 224.629 10.5211 224.543 10.9507V13.9859C224.699 14.5328 224.918 15.0484 225.199 15.5328C225.48 16.0093 225.855 16.3961 226.324 16.6929C226.793 16.982 227.383 17.1265 228.094 17.1265C228.68 17.1265 229.184 17.0054 229.605 16.7632C230.035 16.5132 230.387 16.1734 230.66 15.7437C230.941 15.314 231.148 14.8218 231.281 14.2672C231.414 13.7047 231.48 13.107 231.48 12.4742ZM243.902 16.5054V9.97809C243.902 9.47809 243.801 9.04449 243.598 8.67731C243.402 8.30231 243.105 8.01324 242.707 7.81012C242.309 7.60699 241.816 7.50543 241.23 7.50543C240.684 7.50543 240.203 7.59918 239.789 7.78668C239.383 7.97418 239.062 8.22028 238.828 8.52496C238.602 8.82965 238.488 9.15778 238.488 9.50934H236.32C236.32 9.05621 236.438 8.60699 236.672 8.16168C236.906 7.71637 237.242 7.31403 237.68 6.95465C238.125 6.58746 238.656 6.2984 239.273 6.08746C239.898 5.86871 240.594 5.75934 241.359 5.75934C242.281 5.75934 243.094 5.91559 243.797 6.22809C244.508 6.54059 245.062 7.01324 245.461 7.64606C245.867 8.27106 246.07 9.05621 246.07 10.0015V15.9078C246.07 16.3297 246.105 16.7789 246.176 17.2554C246.254 17.732 246.367 18.1422 246.516 18.4859V18.6734H244.254C244.145 18.4234 244.059 18.0914 243.996 17.6773C243.934 17.2554 243.902 16.8648 243.902 16.5054ZM244.277 10.9859L244.301 12.5093H242.109C241.492 12.5093 240.941 12.5601 240.457 12.6617C239.973 12.7554 239.566 12.9 239.238 13.0953C238.91 13.2906 238.66 13.5367 238.488 13.8336C238.316 14.1226 238.23 14.4625 238.23 14.8531C238.23 15.2515 238.32 15.6148 238.5 15.9429C238.68 16.2711 238.949 16.5328 239.309 16.7281C239.676 16.9156 240.125 17.0093 240.656 17.0093C241.32 17.0093 241.906 16.8687 242.414 16.5875C242.922 16.3062 243.324 15.9625 243.621 15.5562C243.926 15.15 244.09 14.7554 244.113 14.3726L245.039 15.4156C244.984 15.7437 244.836 16.107 244.594 16.5054C244.352 16.9039 244.027 17.2867 243.621 17.6539C243.223 18.0132 242.746 18.314 242.191 18.5562C241.645 18.7906 241.027 18.9078 240.34 18.9078C239.48 18.9078 238.727 18.7398 238.078 18.4039C237.438 18.0679 236.938 17.6187 236.578 17.0562C236.227 16.4859 236.051 15.8492 236.051 15.1461C236.051 14.4664 236.184 13.8687 236.449 13.3531C236.715 12.8297 237.098 12.3961 237.598 12.0523C238.098 11.7007 238.699 11.4351 239.402 11.2554C240.105 11.0757 240.891 10.9859 241.758 10.9859H244.277ZM257.695 5.99371H259.664V18.4039C259.664 19.5211 259.438 20.4742 258.984 21.2632C258.531 22.0523 257.898 22.65 257.086 23.0562C256.281 23.4703 255.352 23.6773 254.297 23.6773C253.859 23.6773 253.344 23.607 252.75 23.4664C252.164 23.3336 251.586 23.1031 251.016 22.775C250.453 22.4547 249.98 22.0211 249.598 21.4742L250.734 20.1851C251.266 20.8257 251.82 21.2711 252.398 21.5211C252.984 21.7711 253.562 21.8961 254.133 21.8961C254.82 21.8961 255.414 21.7672 255.914 21.5093C256.414 21.2515 256.801 20.8687 257.074 20.3609C257.355 19.8609 257.496 19.2437 257.496 18.5093V8.78278L257.695 5.99371ZM248.965 12.4742V12.2281C248.965 11.2593 249.078 10.3804 249.305 9.59137C249.539 8.79449 249.871 8.1109 250.301 7.54059C250.738 6.97028 251.266 6.53278 251.883 6.22809C252.5 5.91559 253.195 5.75934 253.969 5.75934C254.766 5.75934 255.461 5.89996 256.055 6.18121C256.656 6.45465 257.164 6.85699 257.578 7.38824C258 7.91168 258.332 8.54449 258.574 9.28668C258.816 10.0289 258.984 10.8687 259.078 11.8062V12.8843C258.992 13.814 258.824 14.65 258.574 15.3922C258.332 16.1343 258 16.7672 257.578 17.2906C257.164 17.814 256.656 18.2164 256.055 18.4976C255.453 18.7711 254.75 18.9078 253.945 18.9078C253.188 18.9078 252.5 18.7476 251.883 18.4273C251.273 18.107 250.75 17.6578 250.312 17.0797C249.875 16.5015 249.539 15.8218 249.305 15.0406C249.078 14.2515 248.965 13.3961 248.965 12.4742ZM251.133 12.2281V12.4742C251.133 13.107 251.195 13.7007 251.32 14.2554C251.453 14.8101 251.652 15.2984 251.918 15.7203C252.191 16.1422 252.539 16.4742 252.961 16.7164C253.383 16.9507 253.887 17.0679 254.473 17.0679C255.191 17.0679 255.785 16.9156 256.254 16.6109C256.723 16.3062 257.094 15.9039 257.367 15.4039C257.648 14.9039 257.867 14.3609 258.023 13.775V10.9507C257.938 10.5211 257.805 10.107 257.625 9.70856C257.453 9.30231 257.227 8.94293 256.945 8.63043C256.672 8.31012 256.332 8.05621 255.926 7.86871C255.52 7.68121 255.043 7.58746 254.496 7.58746C253.902 7.58746 253.391 7.71246 252.961 7.96246C252.539 8.20465 252.191 8.54059 251.918 8.97028C251.652 9.39215 251.453 9.88434 251.32 10.4468C251.195 11.0015 251.133 11.5953 251.133 12.2281ZM268.219 18.9078C267.336 18.9078 266.535 18.7593 265.816 18.4625C265.105 18.1578 264.492 17.732 263.977 17.1851C263.469 16.6382 263.078 15.9898 262.805 15.2398C262.531 14.4898 262.395 13.6695 262.395 12.7789V12.2867C262.395 11.2554 262.547 10.3375 262.852 9.53278C263.156 8.72028 263.57 8.03278 264.094 7.47028C264.617 6.90778 265.211 6.48199 265.875 6.19293C266.539 5.90387 267.227 5.75934 267.938 5.75934C268.844 5.75934 269.625 5.91559 270.281 6.22809C270.945 6.54059 271.488 6.97809 271.91 7.54059C272.332 8.09528 272.645 8.75153 272.848 9.50934C273.051 10.2593 273.152 11.0797 273.152 11.9703V12.9429H263.684V11.1734H270.984V11.0093C270.953 10.4468 270.836 9.89996 270.633 9.36871C270.438 8.83746 270.125 8.39996 269.695 8.05621C269.266 7.71246 268.68 7.54059 267.938 7.54059C267.445 7.54059 266.992 7.64606 266.578 7.85699C266.164 8.06012 265.809 8.36481 265.512 8.77106C265.215 9.17731 264.984 9.6734 264.82 10.2593C264.656 10.8453 264.574 11.5211 264.574 12.2867V12.7789C264.574 13.3804 264.656 13.9468 264.82 14.4781C264.992 15.0015 265.238 15.4625 265.559 15.8609C265.887 16.2593 266.281 16.5718 266.742 16.7984C267.211 17.025 267.742 17.1382 268.336 17.1382C269.102 17.1382 269.75 16.982 270.281 16.6695C270.812 16.357 271.277 15.939 271.676 15.4156L272.988 16.4586C272.715 16.8726 272.367 17.2672 271.945 17.6422C271.523 18.0172 271.004 18.3218 270.387 18.5562C269.777 18.7906 269.055 18.9078 268.219 18.9078ZM275.719 17.525C275.719 17.1578 275.832 16.8492 276.059 16.5992C276.293 16.3414 276.629 16.2125 277.066 16.2125C277.504 16.2125 277.836 16.3414 278.062 16.5992C278.297 16.8492 278.414 17.1578 278.414 17.525C278.414 17.8843 278.297 18.189 278.062 18.439C277.836 18.689 277.504 18.814 277.066 18.814C276.629 18.814 276.293 18.689 276.059 18.439C275.832 18.189 275.719 17.8843 275.719 17.525ZM290.719 1.6109V18.6734H288.457V1.6109H290.719ZM296.695 0.673401V2.1734C296.695 2.64215 296.613 3.13824 296.449 3.66168C296.293 4.17731 296.062 4.67731 295.758 5.16168C295.453 5.63824 295.086 6.05621 294.656 6.41559L293.414 5.56012C293.781 5.04449 294.059 4.51715 294.246 3.97809C294.441 3.43121 294.539 2.84137 294.539 2.20856V0.673401H296.695ZM301.23 8.51324V18.6734H299.051V5.99371H301.113L301.23 8.51324ZM300.785 11.8531L299.777 11.8179C299.785 10.9507 299.898 10.15 300.117 9.41559C300.336 8.6734 300.66 8.02887 301.09 7.48199C301.52 6.93512 302.055 6.51324 302.695 6.21637C303.336 5.91168 304.078 5.75934 304.922 5.75934C305.516 5.75934 306.062 5.84528 306.562 6.01715C307.062 6.18121 307.496 6.44293 307.863 6.80231C308.23 7.16168 308.516 7.62262 308.719 8.18512C308.922 8.74762 309.023 9.42731 309.023 10.2242V18.6734H306.855V10.3297C306.855 9.66559 306.742 9.13434 306.516 8.7359C306.297 8.33746 305.984 8.0484 305.578 7.86871C305.172 7.68121 304.695 7.58746 304.148 7.58746C303.508 7.58746 302.973 7.70074 302.543 7.92731C302.113 8.15387 301.77 8.46637 301.512 8.86481C301.254 9.26324 301.066 9.72028 300.949 10.2359C300.84 10.7437 300.785 11.2828 300.785 11.8531ZM309 10.6578L307.547 11.1031C307.555 10.4078 307.668 9.73981 307.887 9.09918C308.113 8.45856 308.438 7.88824 308.859 7.38824C309.289 6.88824 309.816 6.49371 310.441 6.20465C311.066 5.90778 311.781 5.75934 312.586 5.75934C313.266 5.75934 313.867 5.84918 314.391 6.02887C314.922 6.20856 315.367 6.4859 315.727 6.8609C316.094 7.22809 316.371 7.70074 316.559 8.27887C316.746 8.85699 316.84 9.54449 316.84 10.3414V18.6734H314.66V10.3179C314.66 9.60699 314.547 9.05621 314.32 8.66559C314.102 8.26715 313.789 7.98981 313.383 7.83356C312.984 7.66949 312.508 7.58746 311.953 7.58746C311.477 7.58746 311.055 7.66949 310.688 7.83356C310.32 7.99762 310.012 8.22418 309.762 8.51324C309.512 8.79449 309.32 9.11871 309.188 9.4859C309.062 9.85309 309 10.2437 309 10.6578ZM333.551 16.5054V9.97809C333.551 9.47809 333.449 9.04449 333.246 8.67731C333.051 8.30231 332.754 8.01324 332.355 7.81012C331.957 7.60699 331.465 7.50543 330.879 7.50543C330.332 7.50543 329.852 7.59918 329.438 7.78668C329.031 7.97418 328.711 8.22028 328.477 8.52496C328.25 8.82965 328.137 9.15778 328.137 9.50934H325.969C325.969 9.05621 326.086 8.60699 326.32 8.16168C326.555 7.71637 326.891 7.31403 327.328 6.95465C327.773 6.58746 328.305 6.2984 328.922 6.08746C329.547 5.86871 330.242 5.75934 331.008 5.75934C331.93 5.75934 332.742 5.91559 333.445 6.22809C334.156 6.54059 334.711 7.01324 335.109 7.64606C335.516 8.27106 335.719 9.05621 335.719 10.0015V15.9078C335.719 16.3297 335.754 16.7789 335.824 17.2554C335.902 17.732 336.016 18.1422 336.164 18.4859V18.6734H333.902C333.793 18.4234 333.707 18.0914 333.645 17.6773C333.582 17.2554 333.551 16.8648 333.551 16.5054ZM333.926 10.9859L333.949 12.5093H331.758C331.141 12.5093 330.59 12.5601 330.105 12.6617C329.621 12.7554 329.215 12.9 328.887 13.0953C328.559 13.2906 328.309 13.5367 328.137 13.8336C327.965 14.1226 327.879 14.4625 327.879 14.8531C327.879 15.2515 327.969 15.6148 328.148 15.9429C328.328 16.2711 328.598 16.5328 328.957 16.7281C329.324 16.9156 329.773 17.0093 330.305 17.0093C330.969 17.0093 331.555 16.8687 332.062 16.5875C332.57 16.3062 332.973 15.9625 333.27 15.5562C333.574 15.15 333.738 14.7554 333.762 14.3726L334.688 15.4156C334.633 15.7437 334.484 16.107 334.242 16.5054C334 16.9039 333.676 17.2867 333.27 17.6539C332.871 18.0132 332.395 18.314 331.84 18.5562C331.293 18.7906 330.676 18.9078 329.988 18.9078C329.129 18.9078 328.375 18.7398 327.727 18.4039C327.086 18.0679 326.586 17.6187 326.227 17.0562C325.875 16.4859 325.699 15.8492 325.699 15.1461C325.699 14.4664 325.832 13.8687 326.098 13.3531C326.363 12.8297 326.746 12.3961 327.246 12.0523C327.746 11.7007 328.348 11.4351 329.051 11.2554C329.754 11.0757 330.539 10.9859 331.406 10.9859H333.926ZM4.88672 60.6734H2.71875V46.6578C2.71875 45.7437 2.88281 44.9742 3.21094 44.3492C3.54688 43.7164 4.02734 43.2398 4.65234 42.9195C5.27734 42.5914 6.01953 42.4273 6.87891 42.4273C7.12891 42.4273 7.37891 42.4429 7.62891 42.4742C7.88672 42.5054 8.13672 42.5523 8.37891 42.6148L8.26172 44.3843C8.09766 44.3453 7.91016 44.3179 7.69922 44.3023C7.49609 44.2867 7.29297 44.2789 7.08984 44.2789C6.62891 44.2789 6.23047 44.3726 5.89453 44.5601C5.56641 44.7398 5.31641 45.0054 5.14453 45.357C4.97266 45.7086 4.88672 46.1422 4.88672 46.6578V60.6734ZM7.58203 47.9937V49.6578H0.714844V47.9937H7.58203ZM12.1641 49.9859V60.6734H9.99609V47.9937H12.1055L12.1641 49.9859ZM16.125 47.9234L16.1133 49.939C15.9336 49.9 15.7617 49.8765 15.5977 49.8687C15.4414 49.8531 15.2617 49.8453 15.0586 49.8453C14.5586 49.8453 14.1172 49.9234 13.7344 50.0797C13.3516 50.2359 13.0273 50.4547 12.7617 50.7359C12.4961 51.0172 12.2852 51.3531 12.1289 51.7437C11.9805 52.1265 11.8828 52.5484 11.8359 53.0093L11.2266 53.3609C11.2266 52.5953 11.3008 51.8765 11.4492 51.2047C11.6055 50.5328 11.8438 49.939 12.1641 49.4234C12.4844 48.9 12.8906 48.4937 13.3828 48.2047C13.8828 47.9078 14.4766 47.7593 15.1641 47.7593C15.3203 47.7593 15.5 47.7789 15.7031 47.8179C15.9062 47.8492 16.0469 47.8843 16.125 47.9234ZM23.1562 60.9078C22.2734 60.9078 21.4727 60.7593 20.7539 60.4625C20.043 60.1578 19.4297 59.732 18.9141 59.1851C18.4062 58.6382 18.0156 57.9898 17.7422 57.2398C17.4688 56.4898 17.332 55.6695 17.332 54.7789V54.2867C17.332 53.2554 17.4844 52.3375 17.7891 51.5328C18.0938 50.7203 18.5078 50.0328 19.0312 49.4703C19.5547 48.9078 20.1484 48.482 20.8125 48.1929C21.4766 47.9039 22.1641 47.7593 22.875 47.7593C23.7812 47.7593 24.5625 47.9156 25.2188 48.2281C25.8828 48.5406 26.4258 48.9781 26.8477 49.5406C27.2695 50.0953 27.582 50.7515 27.7852 51.5093C27.9883 52.2593 28.0898 53.0797 28.0898 53.9703V54.9429H18.6211V53.1734H25.9219V53.0093C25.8906 52.4468 25.7734 51.9 25.5703 51.3687C25.375 50.8375 25.0625 50.4 24.6328 50.0562C24.2031 49.7125 23.6172 49.5406 22.875 49.5406C22.3828 49.5406 21.9297 49.6461 21.5156 49.857C21.1016 50.0601 20.7461 50.3648 20.4492 50.7711C20.1523 51.1773 19.9219 51.6734 19.7578 52.2593C19.5938 52.8453 19.5117 53.5211 19.5117 54.2867V54.7789C19.5117 55.3804 19.5938 55.9468 19.7578 56.4781C19.9297 57.0015 20.1758 57.4625 20.4961 57.8609C20.8242 58.2593 21.2188 58.5718 21.6797 58.7984C22.1484 59.025 22.6797 59.1382 23.2734 59.1382C24.0391 59.1382 24.6875 58.982 25.2188 58.6695C25.75 58.357 26.2148 57.939 26.6133 57.4156L27.9258 58.4586C27.6523 58.8726 27.3047 59.2672 26.8828 59.6422C26.4609 60.0172 25.9414 60.3218 25.3242 60.5562C24.7148 60.7906 23.9922 60.9078 23.1562 60.9078ZM35.8828 60.9078C35 60.9078 34.1992 60.7593 33.4805 60.4625C32.7695 60.1578 32.1562 59.732 31.6406 59.1851C31.1328 58.6382 30.7422 57.9898 30.4688 57.2398C30.1953 56.4898 30.0586 55.6695 30.0586 54.7789V54.2867C30.0586 53.2554 30.2109 52.3375 30.5156 51.5328C30.8203 50.7203 31.2344 50.0328 31.7578 49.4703C32.2812 48.9078 32.875 48.482 33.5391 48.1929C34.2031 47.9039 34.8906 47.7593 35.6016 47.7593C36.5078 47.7593 37.2891 47.9156 37.9453 48.2281C38.6094 48.5406 39.1523 48.9781 39.5742 49.5406C39.9961 50.0953 40.3086 50.7515 40.5117 51.5093C40.7148 52.2593 40.8164 53.0797 40.8164 53.9703V54.9429H31.3477V53.1734H38.6484V53.0093C38.6172 52.4468 38.5 51.9 38.2969 51.3687C38.1016 50.8375 37.7891 50.4 37.3594 50.0562C36.9297 49.7125 36.3438 49.5406 35.6016 49.5406C35.1094 49.5406 34.6562 49.6461 34.2422 49.857C33.8281 50.0601 33.4727 50.3648 33.1758 50.7711C32.8789 51.1773 32.6484 51.6734 32.4844 52.2593C32.3203 52.8453 32.2383 53.5211 32.2383 54.2867V54.7789C32.2383 55.3804 32.3203 55.9468 32.4844 56.4781C32.6562 57.0015 32.9023 57.4625 33.2227 57.8609C33.5508 58.2593 33.9453 58.5718 34.4062 58.7984C34.875 59.025 35.4062 59.1382 36 59.1382C36.7656 59.1382 37.4141 58.982 37.9453 58.6695C38.4766 58.357 38.9414 57.939 39.3398 57.4156L40.6523 58.4586C40.3789 58.8726 40.0312 59.2672 39.6094 59.6422C39.1875 60.0172 38.668 60.3218 38.0508 60.5562C37.4414 60.7906 36.7188 60.9078 35.8828 60.9078ZM45.7031 42.6734V60.6734H43.5234V42.6734H45.7031ZM56.6602 58.5054V51.9781C56.6602 51.4781 56.5586 51.0445 56.3555 50.6773C56.1602 50.3023 55.8633 50.0132 55.4648 49.8101C55.0664 49.607 54.5742 49.5054 53.9883 49.5054C53.4414 49.5054 52.9609 49.5992 52.5469 49.7867C52.1406 49.9742 51.8203 50.2203 51.5859 50.525C51.3594 50.8297 51.2461 51.1578 51.2461 51.5093H49.0781C49.0781 51.0562 49.1953 50.607 49.4297 50.1617C49.6641 49.7164 50 49.314 50.4375 48.9547C50.8828 48.5875 51.4141 48.2984 52.0312 48.0875C52.6562 47.8687 53.3516 47.7593 54.1172 47.7593C55.0391 47.7593 55.8516 47.9156 56.5547 48.2281C57.2656 48.5406 57.8203 49.0132 58.2188 49.6461C58.625 50.2711 58.8281 51.0562 58.8281 52.0015V57.9078C58.8281 58.3297 58.8633 58.7789 58.9336 59.2554C59.0117 59.732 59.125 60.1422 59.2734 60.4859V60.6734H57.0117C56.9023 60.4234 56.8164 60.0914 56.7539 59.6773C56.6914 59.2554 56.6602 58.8648 56.6602 58.5054ZM57.0352 52.9859L57.0586 54.5093H54.8672C54.25 54.5093 53.6992 54.5601 53.2148 54.6617C52.7305 54.7554 52.3242 54.9 51.9961 55.0953C51.668 55.2906 51.418 55.5367 51.2461 55.8336C51.0742 56.1226 50.9883 56.4625 50.9883 56.8531C50.9883 57.2515 51.0781 57.6148 51.2578 57.9429C51.4375 58.2711 51.707 58.5328 52.0664 58.7281C52.4336 58.9156 52.8828 59.0093 53.4141 59.0093C54.0781 59.0093 54.6641 58.8687 55.1719 58.5875C55.6797 58.3062 56.082 57.9625 56.3789 57.5562C56.6836 57.15 56.8477 56.7554 56.8711 56.3726L57.7969 57.4156C57.7422 57.7437 57.5938 58.107 57.3516 58.5054C57.1094 58.9039 56.7852 59.2867 56.3789 59.6539C55.9805 60.0132 55.5039 60.314 54.9492 60.5562C54.4023 60.7906 53.7852 60.9078 53.0977 60.9078C52.2383 60.9078 51.4844 60.7398 50.8359 60.4039C50.1953 60.0679 49.6953 59.6187 49.3359 59.0562C48.9844 58.4859 48.8086 57.8492 48.8086 57.1461C48.8086 56.4664 48.9414 55.8687 49.207 55.3531C49.4727 54.8297 49.8555 54.3961 50.3555 54.0523C50.8555 53.7007 51.457 53.4351 52.1602 53.2554C52.8633 53.0757 53.6484 52.9859 54.5156 52.9859H57.0352ZM64.4062 50.7007V60.6734H62.2383V47.9937H64.2891L64.4062 50.7007ZM63.8906 53.8531L62.9883 53.8179C62.9961 52.9507 63.125 52.15 63.375 51.4156C63.625 50.6734 63.9766 50.0289 64.4297 49.482C64.8828 48.9351 65.4219 48.5132 66.0469 48.2164C66.6797 47.9117 67.3789 47.7593 68.1445 47.7593C68.7695 47.7593 69.332 47.8453 69.832 48.0172C70.332 48.1812 70.7578 48.4468 71.1094 48.814C71.4688 49.1812 71.7422 49.6578 71.9297 50.2437C72.1172 50.8218 72.2109 51.5289 72.2109 52.3648V60.6734H70.0312V52.3414C70.0312 51.6773 69.9336 51.1461 69.7383 50.7476C69.543 50.3414 69.2578 50.0484 68.8828 49.8687C68.5078 49.6812 68.0469 49.5875 67.5 49.5875C66.9609 49.5875 66.4688 49.7007 66.0234 49.9273C65.5859 50.1539 65.207 50.4664 64.8867 50.8648C64.5742 51.2632 64.3281 51.7203 64.1484 52.2359C63.9766 52.7437 63.8906 53.2828 63.8906 53.8531ZM80.5781 59.1265C81.0938 59.1265 81.5703 59.0211 82.0078 58.8101C82.4453 58.5992 82.8047 58.3101 83.0859 57.9429C83.3672 57.5679 83.5273 57.1422 83.5664 56.6656H85.6289C85.5898 57.4156 85.3359 58.1148 84.8672 58.7632C84.4062 59.4039 83.8008 59.9234 83.0508 60.3218C82.3008 60.7125 81.4766 60.9078 80.5781 60.9078C79.625 60.9078 78.793 60.7398 78.082 60.4039C77.3789 60.0679 76.793 59.607 76.3242 59.0211C75.8633 58.4351 75.5156 57.7632 75.2812 57.0054C75.0547 56.2398 74.9414 55.4312 74.9414 54.5797V54.0875C74.9414 53.2359 75.0547 52.4312 75.2812 51.6734C75.5156 50.9078 75.8633 50.232 76.3242 49.6461C76.793 49.0601 77.3789 48.5992 78.082 48.2632C78.793 47.9273 79.625 47.7593 80.5781 47.7593C81.5703 47.7593 82.4375 47.9625 83.1797 48.3687C83.9219 48.7672 84.5039 49.314 84.9258 50.0093C85.3555 50.6968 85.5898 51.4781 85.6289 52.3531H83.5664C83.5273 51.8297 83.3789 51.357 83.1211 50.9351C82.8711 50.5132 82.5273 50.1773 82.0898 49.9273C81.6602 49.6695 81.1562 49.5406 80.5781 49.5406C79.9141 49.5406 79.3555 49.6734 78.9023 49.939C78.457 50.1968 78.1016 50.5484 77.8359 50.9937C77.5781 51.4312 77.3906 51.9195 77.2734 52.4586C77.1641 52.9898 77.1094 53.5328 77.1094 54.0875V54.5797C77.1094 55.1343 77.1641 55.6812 77.2734 56.2203C77.3828 56.7593 77.5664 57.2476 77.8242 57.6851C78.0898 58.1226 78.4453 58.4742 78.8906 58.7398C79.3438 58.9976 79.9062 59.1265 80.5781 59.1265ZM93.3281 60.9078C92.4453 60.9078 91.6445 60.7593 90.9258 60.4625C90.2148 60.1578 89.6016 59.732 89.0859 59.1851C88.5781 58.6382 88.1875 57.9898 87.9141 57.2398C87.6406 56.4898 87.5039 55.6695 87.5039 54.7789V54.2867C87.5039 53.2554 87.6562 52.3375 87.9609 51.5328C88.2656 50.7203 88.6797 50.0328 89.2031 49.4703C89.7266 48.9078 90.3203 48.482 90.9844 48.1929C91.6484 47.9039 92.3359 47.7593 93.0469 47.7593C93.9531 47.7593 94.7344 47.9156 95.3906 48.2281C96.0547 48.5406 96.5977 48.9781 97.0195 49.5406C97.4414 50.0953 97.7539 50.7515 97.957 51.5093C98.1602 52.2593 98.2617 53.0797 98.2617 53.9703V54.9429H88.793V53.1734H96.0938V53.0093C96.0625 52.4468 95.9453 51.9 95.7422 51.3687C95.5469 50.8375 95.2344 50.4 94.8047 50.0562C94.375 49.7125 93.7891 49.5406 93.0469 49.5406C92.5547 49.5406 92.1016 49.6461 91.6875 49.857C91.2734 50.0601 90.918 50.3648 90.6211 50.7711C90.3242 51.1773 90.0938 51.6734 89.9297 52.2593C89.7656 52.8453 89.6836 53.5211 89.6836 54.2867V54.7789C89.6836 55.3804 89.7656 55.9468 89.9297 56.4781C90.1016 57.0015 90.3477 57.4625 90.668 57.8609C90.9961 58.2593 91.3906 58.5718 91.8516 58.7984C92.3203 59.025 92.8516 59.1382 93.4453 59.1382C94.2109 59.1382 94.8594 58.982 95.3906 58.6695C95.9219 58.357 96.3867 57.939 96.7852 57.4156L98.0977 58.4586C97.8242 58.8726 97.4766 59.2672 97.0547 59.6422C96.6328 60.0172 96.1133 60.3218 95.4961 60.5562C94.8867 60.7906 94.1641 60.9078 93.3281 60.9078ZM108.914 50.4312V65.5484H106.734V47.9937H108.727L108.914 50.4312ZM117.457 54.2281V54.4742C117.457 55.3961 117.348 56.2515 117.129 57.0406C116.91 57.8218 116.59 58.5015 116.168 59.0797C115.754 59.6578 115.242 60.107 114.633 60.4273C114.023 60.7476 113.324 60.9078 112.535 60.9078C111.73 60.9078 111.02 60.775 110.402 60.5093C109.785 60.2437 109.262 59.857 108.832 59.3492C108.402 58.8414 108.059 58.232 107.801 57.5211C107.551 56.8101 107.379 56.0093 107.285 55.1187V53.8062C107.379 52.8687 107.555 52.0289 107.812 51.2867C108.07 50.5445 108.41 49.9117 108.832 49.3882C109.262 48.857 109.781 48.4547 110.391 48.1812C111 47.9 111.703 47.7593 112.5 47.7593C113.297 47.7593 114.004 47.9156 114.621 48.2281C115.238 48.5328 115.758 48.9703 116.18 49.5406C116.602 50.1109 116.918 50.7945 117.129 51.5914C117.348 52.3804 117.457 53.2593 117.457 54.2281ZM115.277 54.4742V54.2281C115.277 53.5953 115.211 53.0015 115.078 52.4468C114.945 51.8843 114.738 51.3922 114.457 50.9703C114.184 50.5406 113.832 50.2047 113.402 49.9625C112.973 49.7125 112.461 49.5875 111.867 49.5875C111.32 49.5875 110.844 49.6812 110.438 49.8687C110.039 50.0562 109.699 50.3101 109.418 50.6304C109.137 50.9429 108.906 51.3023 108.727 51.7086C108.555 52.107 108.426 52.5211 108.34 52.9507V55.9859C108.496 56.5328 108.715 57.0484 108.996 57.5328C109.277 58.0093 109.652 58.3961 110.121 58.6929C110.59 58.982 111.18 59.1265 111.891 59.1265C112.477 59.1265 112.98 59.0054 113.402 58.7632C113.832 58.5132 114.184 58.1734 114.457 57.7437C114.738 57.314 114.945 56.8218 115.078 56.2672C115.211 55.7047 115.277 55.107 115.277 54.4742ZM122.391 42.6734V60.6734H120.223V42.6734H122.391ZM121.875 53.8531L120.973 53.8179C120.98 52.9507 121.109 52.15 121.359 51.4156C121.609 50.6734 121.961 50.0289 122.414 49.482C122.867 48.9351 123.406 48.5132 124.031 48.2164C124.664 47.9117 125.363 47.7593 126.129 47.7593C126.754 47.7593 127.316 47.8453 127.816 48.0172C128.316 48.1812 128.742 48.4468 129.094 48.814C129.453 49.1812 129.727 49.6578 129.914 50.2437C130.102 50.8218 130.195 51.5289 130.195 52.3648V60.6734H128.016V52.3414C128.016 51.6773 127.918 51.1461 127.723 50.7476C127.527 50.3414 127.242 50.0484 126.867 49.8687C126.492 49.6812 126.031 49.5875 125.484 49.5875C124.945 49.5875 124.453 49.7007 124.008 49.9273C123.57 50.1539 123.191 50.4664 122.871 50.8648C122.559 51.2632 122.312 51.7203 122.133 52.2359C121.961 52.7437 121.875 53.2828 121.875 53.8531ZM132.867 54.4742V54.2047C132.867 53.2906 133 52.4429 133.266 51.6617C133.531 50.8726 133.914 50.189 134.414 49.6109C134.914 49.025 135.52 48.5718 136.23 48.2515C136.941 47.9234 137.738 47.7593 138.621 47.7593C139.512 47.7593 140.312 47.9234 141.023 48.2515C141.742 48.5718 142.352 49.025 142.852 49.6109C143.359 50.189 143.746 50.8726 144.012 51.6617C144.277 52.4429 144.41 53.2906 144.41 54.2047V54.4742C144.41 55.3882 144.277 56.2359 144.012 57.0172C143.746 57.7984 143.359 58.482 142.852 59.0679C142.352 59.6461 141.746 60.0992 141.035 60.4273C140.332 60.7476 139.535 60.9078 138.645 60.9078C137.754 60.9078 136.953 60.7476 136.242 60.4273C135.531 60.0992 134.922 59.6461 134.414 59.0679C133.914 58.482 133.531 57.7984 133.266 57.0172C133 56.2359 132.867 55.3882 132.867 54.4742ZM135.035 54.2047V54.4742C135.035 55.107 135.109 55.7047 135.258 56.2672C135.406 56.8218 135.629 57.314 135.926 57.7437C136.23 58.1734 136.609 58.5132 137.062 58.7632C137.516 59.0054 138.043 59.1265 138.645 59.1265C139.238 59.1265 139.758 59.0054 140.203 58.7632C140.656 58.5132 141.031 58.1734 141.328 57.7437C141.625 57.314 141.848 56.8218 141.996 56.2672C142.152 55.7047 142.23 55.107 142.23 54.4742V54.2047C142.23 53.5797 142.152 52.9898 141.996 52.4351C141.848 51.8726 141.621 51.3765 141.316 50.9468C141.02 50.5093 140.645 50.1656 140.191 49.9156C139.746 49.6656 139.223 49.5406 138.621 49.5406C138.027 49.5406 137.504 49.6656 137.051 49.9156C136.605 50.1656 136.23 50.5093 135.926 50.9468C135.629 51.3765 135.406 51.8726 135.258 52.4351C135.109 52.9898 135.035 53.5797 135.035 54.2047ZM152.438 47.9937V49.6578H145.582V47.9937H152.438ZM147.902 44.9117H150.07V57.5328C150.07 57.9625 150.137 58.2867 150.27 58.5054C150.402 58.7242 150.574 58.8687 150.785 58.939C150.996 59.0093 151.223 59.0445 151.465 59.0445C151.645 59.0445 151.832 59.0289 152.027 58.9976C152.23 58.9586 152.383 58.9273 152.484 58.9039L152.496 60.6734C152.324 60.7281 152.098 60.7789 151.816 60.8257C151.543 60.8804 151.211 60.9078 150.82 60.9078C150.289 60.9078 149.801 60.8023 149.355 60.5914C148.91 60.3804 148.555 60.0289 148.289 59.5367C148.031 59.0367 147.902 58.3648 147.902 57.5211V44.9117ZM154.172 54.4742V54.2047C154.172 53.2906 154.305 52.4429 154.57 51.6617C154.836 50.8726 155.219 50.189 155.719 49.6109C156.219 49.025 156.824 48.5718 157.535 48.2515C158.246 47.9234 159.043 47.7593 159.926 47.7593C160.816 47.7593 161.617 47.9234 162.328 48.2515C163.047 48.5718 163.656 49.025 164.156 49.6109C164.664 50.189 165.051 50.8726 165.316 51.6617C165.582 52.4429 165.715 53.2906 165.715 54.2047V54.4742C165.715 55.3882 165.582 56.2359 165.316 57.0172C165.051 57.7984 164.664 58.482 164.156 59.0679C163.656 59.6461 163.051 60.0992 162.34 60.4273C161.637 60.7476 160.84 60.9078 159.949 60.9078C159.059 60.9078 158.258 60.7476 157.547 60.4273C156.836 60.0992 156.227 59.6461 155.719 59.0679C155.219 58.482 154.836 57.7984 154.57 57.0172C154.305 56.2359 154.172 55.3882 154.172 54.4742ZM156.34 54.2047V54.4742C156.34 55.107 156.414 55.7047 156.562 56.2672C156.711 56.8218 156.934 57.314 157.23 57.7437C157.535 58.1734 157.914 58.5132 158.367 58.7632C158.82 59.0054 159.348 59.1265 159.949 59.1265C160.543 59.1265 161.062 59.0054 161.508 58.7632C161.961 58.5132 162.336 58.1734 162.633 57.7437C162.93 57.314 163.152 56.8218 163.301 56.2672C163.457 55.7047 163.535 55.107 163.535 54.4742V54.2047C163.535 53.5797 163.457 52.9898 163.301 52.4351C163.152 51.8726 162.926 51.3765 162.621 50.9468C162.324 50.5093 161.949 50.1656 161.496 49.9156C161.051 49.6656 160.527 49.5406 159.926 49.5406C159.332 49.5406 158.809 49.6656 158.355 49.9156C157.91 50.1656 157.535 50.5093 157.23 50.9468C156.934 51.3765 156.711 51.8726 156.562 52.4351C156.414 52.9898 156.34 53.5797 156.34 54.2047ZM176.648 47.9937H178.617V60.4039C178.617 61.5211 178.391 62.4742 177.938 63.2632C177.484 64.0523 176.852 64.65 176.039 65.0562C175.234 65.4703 174.305 65.6773 173.25 65.6773C172.812 65.6773 172.297 65.607 171.703 65.4664C171.117 65.3336 170.539 65.1031 169.969 64.775C169.406 64.4547 168.934 64.0211 168.551 63.4742L169.688 62.1851C170.219 62.8257 170.773 63.2711 171.352 63.5211C171.938 63.7711 172.516 63.8961 173.086 63.8961C173.773 63.8961 174.367 63.7672 174.867 63.5093C175.367 63.2515 175.754 62.8687 176.027 62.3609C176.309 61.8609 176.449 61.2437 176.449 60.5093V50.7828L176.648 47.9937ZM167.918 54.4742V54.2281C167.918 53.2593 168.031 52.3804 168.258 51.5914C168.492 50.7945 168.824 50.1109 169.254 49.5406C169.691 48.9703 170.219 48.5328 170.836 48.2281C171.453 47.9156 172.148 47.7593 172.922 47.7593C173.719 47.7593 174.414 47.9 175.008 48.1812C175.609 48.4547 176.117 48.857 176.531 49.3882C176.953 49.9117 177.285 50.5445 177.527 51.2867C177.77 52.0289 177.938 52.8687 178.031 53.8062V54.8843C177.945 55.814 177.777 56.65 177.527 57.3922C177.285 58.1343 176.953 58.7672 176.531 59.2906C176.117 59.814 175.609 60.2164 175.008 60.4976C174.406 60.7711 173.703 60.9078 172.898 60.9078C172.141 60.9078 171.453 60.7476 170.836 60.4273C170.227 60.107 169.703 59.6578 169.266 59.0797C168.828 58.5015 168.492 57.8218 168.258 57.0406C168.031 56.2515 167.918 55.3961 167.918 54.4742ZM170.086 54.2281V54.4742C170.086 55.107 170.148 55.7007 170.273 56.2554C170.406 56.8101 170.605 57.2984 170.871 57.7203C171.145 58.1422 171.492 58.4742 171.914 58.7164C172.336 58.9507 172.84 59.0679 173.426 59.0679C174.145 59.0679 174.738 58.9156 175.207 58.6109C175.676 58.3062 176.047 57.9039 176.32 57.4039C176.602 56.9039 176.82 56.3609 176.977 55.775V52.9507C176.891 52.5211 176.758 52.107 176.578 51.7086C176.406 51.3023 176.18 50.9429 175.898 50.6304C175.625 50.3101 175.285 50.0562 174.879 49.8687C174.473 49.6812 173.996 49.5875 173.449 49.5875C172.855 49.5875 172.344 49.7125 171.914 49.9625C171.492 50.2047 171.145 50.5406 170.871 50.9703C170.605 51.3922 170.406 51.8843 170.273 52.4468C170.148 53.0015 170.086 53.5953 170.086 54.2281ZM184.078 49.9859V60.6734H181.91V47.9937H184.02L184.078 49.9859ZM188.039 47.9234L188.027 49.939C187.848 49.9 187.676 49.8765 187.512 49.8687C187.355 49.8531 187.176 49.8453 186.973 49.8453C186.473 49.8453 186.031 49.9234 185.648 50.0797C185.266 50.2359 184.941 50.4547 184.676 50.7359C184.41 51.0172 184.199 51.3531 184.043 51.7437C183.895 52.1265 183.797 52.5484 183.75 53.0093L183.141 53.3609C183.141 52.5953 183.215 51.8765 183.363 51.2047C183.52 50.5328 183.758 49.939 184.078 49.4234C184.398 48.9 184.805 48.4937 185.297 48.2047C185.797 47.9078 186.391 47.7593 187.078 47.7593C187.234 47.7593 187.414 47.7789 187.617 47.8179C187.82 47.8492 187.961 47.8843 188.039 47.9234ZM197.051 58.5054V51.9781C197.051 51.4781 196.949 51.0445 196.746 50.6773C196.551 50.3023 196.254 50.0132 195.855 49.8101C195.457 49.607 194.965 49.5054 194.379 49.5054C193.832 49.5054 193.352 49.5992 192.938 49.7867C192.531 49.9742 192.211 50.2203 191.977 50.525C191.75 50.8297 191.637 51.1578 191.637 51.5093H189.469C189.469 51.0562 189.586 50.607 189.82 50.1617C190.055 49.7164 190.391 49.314 190.828 48.9547C191.273 48.5875 191.805 48.2984 192.422 48.0875C193.047 47.8687 193.742 47.7593 194.508 47.7593C195.43 47.7593 196.242 47.9156 196.945 48.2281C197.656 48.5406 198.211 49.0132 198.609 49.6461C199.016 50.2711 199.219 51.0562 199.219 52.0015V57.9078C199.219 58.3297 199.254 58.7789 199.324 59.2554C199.402 59.732 199.516 60.1422 199.664 60.4859V60.6734H197.402C197.293 60.4234 197.207 60.0914 197.145 59.6773C197.082 59.2554 197.051 58.8648 197.051 58.5054ZM197.426 52.9859L197.449 54.5093H195.258C194.641 54.5093 194.09 54.5601 193.605 54.6617C193.121 54.7554 192.715 54.9 192.387 55.0953C192.059 55.2906 191.809 55.5367 191.637 55.8336C191.465 56.1226 191.379 56.4625 191.379 56.8531C191.379 57.2515 191.469 57.6148 191.648 57.9429C191.828 58.2711 192.098 58.5328 192.457 58.7281C192.824 58.9156 193.273 59.0093 193.805 59.0093C194.469 59.0093 195.055 58.8687 195.562 58.5875C196.07 58.3062 196.473 57.9625 196.77 57.5562C197.074 57.15 197.238 56.7554 197.262 56.3726L198.188 57.4156C198.133 57.7437 197.984 58.107 197.742 58.5054C197.5 58.9039 197.176 59.2867 196.77 59.6539C196.371 60.0132 195.895 60.314 195.34 60.5562C194.793 60.7906 194.176 60.9078 193.488 60.9078C192.629 60.9078 191.875 60.7398 191.227 60.4039C190.586 60.0679 190.086 59.6187 189.727 59.0562C189.375 58.4859 189.199 57.8492 189.199 57.1461C189.199 56.4664 189.332 55.8687 189.598 55.3531C189.863 54.8297 190.246 54.3961 190.746 54.0523C191.246 53.7007 191.848 53.4351 192.551 53.2554C193.254 53.0757 194.039 52.9859 194.906 52.9859H197.426ZM204.797 50.4312V65.5484H202.617V47.9937H204.609L204.797 50.4312ZM213.34 54.2281V54.4742C213.34 55.3961 213.23 56.2515 213.012 57.0406C212.793 57.8218 212.473 58.5015 212.051 59.0797C211.637 59.6578 211.125 60.107 210.516 60.4273C209.906 60.7476 209.207 60.9078 208.418 60.9078C207.613 60.9078 206.902 60.775 206.285 60.5093C205.668 60.2437 205.145 59.857 204.715 59.3492C204.285 58.8414 203.941 58.232 203.684 57.5211C203.434 56.8101 203.262 56.0093 203.168 55.1187V53.8062C203.262 52.8687 203.438 52.0289 203.695 51.2867C203.953 50.5445 204.293 49.9117 204.715 49.3882C205.145 48.857 205.664 48.4547 206.273 48.1812C206.883 47.9 207.586 47.7593 208.383 47.7593C209.18 47.7593 209.887 47.9156 210.504 48.2281C211.121 48.5328 211.641 48.9703 212.062 49.5406C212.484 50.1109 212.801 50.7945 213.012 51.5914C213.23 52.3804 213.34 53.2593 213.34 54.2281ZM211.16 54.4742V54.2281C211.16 53.5953 211.094 53.0015 210.961 52.4468C210.828 51.8843 210.621 51.3922 210.34 50.9703C210.066 50.5406 209.715 50.2047 209.285 49.9625C208.855 49.7125 208.344 49.5875 207.75 49.5875C207.203 49.5875 206.727 49.6812 206.32 49.8687C205.922 50.0562 205.582 50.3101 205.301 50.6304C205.02 50.9429 204.789 51.3023 204.609 51.7086C204.438 52.107 204.309 52.5211 204.223 52.9507V55.9859C204.379 56.5328 204.598 57.0484 204.879 57.5328C205.16 58.0093 205.535 58.3961 206.004 58.6929C206.473 58.982 207.062 59.1265 207.773 59.1265C208.359 59.1265 208.863 59.0054 209.285 58.7632C209.715 58.5132 210.066 58.1734 210.34 57.7437C210.621 57.314 210.828 56.8218 210.961 56.2672C211.094 55.7047 211.16 55.107 211.16 54.4742ZM218.273 42.6734V60.6734H216.105V42.6734H218.273ZM217.758 53.8531L216.855 53.8179C216.863 52.9507 216.992 52.15 217.242 51.4156C217.492 50.6734 217.844 50.0289 218.297 49.482C218.75 48.9351 219.289 48.5132 219.914 48.2164C220.547 47.9117 221.246 47.7593 222.012 47.7593C222.637 47.7593 223.199 47.8453 223.699 48.0172C224.199 48.1812 224.625 48.4468 224.977 48.814C225.336 49.1812 225.609 49.6578 225.797 50.2437C225.984 50.8218 226.078 51.5289 226.078 52.3648V60.6734H223.898V52.3414C223.898 51.6773 223.801 51.1461 223.605 50.7476C223.41 50.3414 223.125 50.0484 222.75 49.8687C222.375 49.6812 221.914 49.5875 221.367 49.5875C220.828 49.5875 220.336 49.7007 219.891 49.9273C219.453 50.1539 219.074 50.4664 218.754 50.8648C218.441 51.2632 218.195 51.7203 218.016 52.2359C217.844 52.7437 217.758 53.2828 217.758 53.8531ZM234.586 60.9078C233.703 60.9078 232.902 60.7593 232.184 60.4625C231.473 60.1578 230.859 59.732 230.344 59.1851C229.836 58.6382 229.445 57.9898 229.172 57.2398C228.898 56.4898 228.762 55.6695 228.762 54.7789V54.2867C228.762 53.2554 228.914 52.3375 229.219 51.5328C229.523 50.7203 229.938 50.0328 230.461 49.4703C230.984 48.9078 231.578 48.482 232.242 48.1929C232.906 47.9039 233.594 47.7593 234.305 47.7593C235.211 47.7593 235.992 47.9156 236.648 48.2281C237.312 48.5406 237.855 48.9781 238.277 49.5406C238.699 50.0953 239.012 50.7515 239.215 51.5093C239.418 52.2593 239.52 53.0797 239.52 53.9703V54.9429H230.051V53.1734H237.352V53.0093C237.32 52.4468 237.203 51.9 237 51.3687C236.805 50.8375 236.492 50.4 236.062 50.0562C235.633 49.7125 235.047 49.5406 234.305 49.5406C233.812 49.5406 233.359 49.6461 232.945 49.857C232.531 50.0601 232.176 50.3648 231.879 50.7711C231.582 51.1773 231.352 51.6734 231.188 52.2593C231.023 52.8453 230.941 53.5211 230.941 54.2867V54.7789C230.941 55.3804 231.023 55.9468 231.188 56.4781C231.359 57.0015 231.605 57.4625 231.926 57.8609C232.254 58.2593 232.648 58.5718 233.109 58.7984C233.578 59.025 234.109 59.1382 234.703 59.1382C235.469 59.1382 236.117 58.982 236.648 58.6695C237.18 58.357 237.645 57.939 238.043 57.4156L239.355 58.4586C239.082 58.8726 238.734 59.2672 238.312 59.6422C237.891 60.0172 237.371 60.3218 236.754 60.5562C236.145 60.7906 235.422 60.9078 234.586 60.9078ZM244.219 49.9859V60.6734H242.051V47.9937H244.16L244.219 49.9859ZM248.18 47.9234L248.168 49.939C247.988 49.9 247.816 49.8765 247.652 49.8687C247.496 49.8531 247.316 49.8453 247.113 49.8453C246.613 49.8453 246.172 49.9234 245.789 50.0797C245.406 50.2359 245.082 50.4547 244.816 50.7359C244.551 51.0172 244.34 51.3531 244.184 51.7437C244.035 52.1265 243.938 52.5484 243.891 53.0093L243.281 53.3609C243.281 52.5953 243.355 51.8765 243.504 51.2047C243.66 50.5328 243.898 49.939 244.219 49.4234C244.539 48.9 244.945 48.4937 245.438 48.2047C245.938 47.9078 246.531 47.7593 247.219 47.7593C247.375 47.7593 247.555 47.7789 247.758 47.8179C247.961 47.8492 248.102 47.8843 248.18 47.9234ZM248.766 59.525C248.766 59.1578 248.879 58.8492 249.105 58.5992C249.34 58.3414 249.676 58.2125 250.113 58.2125C250.551 58.2125 250.883 58.3414 251.109 58.5992C251.344 58.8492 251.461 59.1578 251.461 59.525C251.461 59.8843 251.344 60.189 251.109 60.439C250.883 60.689 250.551 60.814 250.113 60.814C249.676 60.814 249.34 60.689 249.105 60.439C248.879 60.189 248.766 59.8843 248.766 59.525Z" fill="#021718"/>
</svg>
